<?xml version="1.0" encoding="utf-8"?>
<!-- Generator: Adobe Illustrator 21.1.0, SVG Export Plug-In . SVG Version: 6.00 Build 0)  -->
<svg version="1.1" id="Layer_1" xmlns="http://www.w3.org/2000/svg" xmlns:xlink="http://www.w3.org/1999/xlink" x="0px" y="0px"
	 viewBox="0 0 100 100" style="enable-background:new 0 0 100 100;" xml:space="preserve">
<g>
	<path d="M71.8,86.4H28.2c-3.3,0-5.8-2.6-5.8-5.8V19.5c0-3.3,2.6-5.8,5.8-5.8h43.5c3.3,0,5.8,2.6,5.8,5.8v61.1
		C77.6,83.8,75.1,86.4,71.8,86.4z M28.2,15.9c-1.9,0-3.5,1.6-3.5,3.5v61.1c0,1.9,1.6,3.5,3.5,3.5h43.5c1.9,0,3.5-1.6,3.5-3.5v-61
		c0-2-1.6-3.6-3.5-3.6L28.2,15.9L28.2,15.9z"/>
</g>
<g>
	<path d="M62.6,24.1H37.4c-1.8,0-3.3-1.6-3.3-3.3v-6h2.4v6.1c0,0.5,0.5,1,1,1h25.2c0.5,0,1-0.5,1-1v-6.1h2.4v6.1
		C65.9,22.5,64.4,24.1,62.6,24.1z"/>
</g>
<g>
	<polygon points="72.9,79.4 27.1,79.4 27.1,19.5 35.3,19.5 35.3,21.7 29.5,21.7 29.5,77 70.5,77 70.5,21.7 64.7,21.7 64.7,19.5 
		72.9,19.5 	"/>
</g>
<g>
	<rect x="31.7" y="27.1" width="36.4" height="2.4"/>
</g>
<g>
	<rect x="31.7" y="36.5" width="28.3" height="2.4"/>
</g>
<g>
	<rect x="31.7" y="31.7" width="32.9" height="2.4"/>
</g>
<g>
	<rect x="31.7" y="41.1" width="32.9" height="2.4"/>
</g>
<path d="M61,54.2c0-0.2-0.1-0.5-0.3-0.6l0,0l-0.1-0.1l-10-6.3c-0.3-0.2-0.6-0.2-1,0l-10,6.3c0,0-0.1,0-0.1,0.1c0,0-0.1,0-0.1,0.1
	l-0.2,0.1c0,0,0,0-0.1,0.1c0,0,0,0.1-0.1,0.1c0,0,0,0,0,0.1s0,0.1,0,0.2v12.5c0,0.3,0.2,0.6,0.4,0.7l9.9,6.3l0,0l0,0
	c0,0,0.1,0,0.1,0.1c0,0,0,0,0.1,0s0.2,0,0.2,0c0.1,0,0.2,0,0.2,0s0,0,0.1,0c0,0,0.1,0,0.1-0.1l0,0l0,0l10-6.3
	c0.3-0.2,0.4-0.4,0.4-0.7L61,54.2L61,54.2z M45.3,51.9l8.2,5.2l-3.4,2.1l-8.2-5.2L45.3,51.9z M50.1,49l8.2,5.2l-3.1,1.9L47,50.9
	L50.1,49z M41,55.8l8.1,5.2v10.4L41,66.2V55.8z M51,71.3V60.8l3.3-2.1V60c0,0.5,0.4,1,1,1s1-0.4,1-1v-2.4l3.1-1.9v10.4L51,71.3z"/>
</svg>
