<?xml version="1.0" encoding="utf-8"?>
<!-- Generator: Adobe Illustrator 21.1.0, SVG Export Plug-In . SVG Version: 6.00 Build 0)  -->
<svg version="1.1" id="Capa_1" xmlns="http://www.w3.org/2000/svg" xmlns:xlink="http://www.w3.org/1999/xlink" x="0px" y="0px"
	 viewBox="0 0 512 512" style="enable-background:new 0 0 512 512;" xml:space="preserve">
<style type="text/css">
	.st0{fill:#001E35;}
</style>
<g>
	<g>
		<path class="st0" d="M38.8,401.6c-5.5,0-10,4.5-10,10v0.1c0,5.5,4.5,10,10,10s10-4.5,10-10v-0.1C48.8,406.1,44.4,401.6,38.8,401.6
			z"/>
	</g>
</g>
<g>
	<g>
		<path class="st0" d="M132.9,180.1c-1.9-1.9-4.4-2.9-7.1-2.9s-5.2,1.1-7.1,2.9c-1.9,1.9-2.9,4.4-2.9,7.1s1.1,5.2,2.9,7.1
			c1.9,1.9,4.4,2.9,7.1,2.9c2.6,0,5.2-1.1,7.1-2.9c1.9-1.9,2.9-4.4,2.9-7.1S134.8,182,132.9,180.1z"/>
	</g>
</g>
<g>
	<g>
		<path class="st0" d="M512,114c0-2.6-1-5.2-2.9-7.1l-104-104C403.2,1,400.6,0,398,0c0,0,0,0,0,0H122c-16.5,0-30,13.5-30,30v111.5
			c0,5.5,4.5,10,10,10s10-4.5,10-10V30c0-5.5,4.5-10,10-10h266v74c0,16.5,13.5,30,30,30h74v358c0,5.5-4.5,10-10,10H122
			c-5.5,0-10-4.5-10-10v-24.5c3.6,0.3,7.3,0.5,10.9,0.5h134.9c19.8,0,35.9-16.1,35.9-35.9v-0.5c0-5.7-1.3-11.1-3.7-15.9
			c19.5-0.3,35.3-16.2,35.3-35.8v-0.5c0-10.2-4.2-19.3-11.1-25.9c6.8-6.5,11.1-15.7,11.1-25.9v-0.5c0-16.4-11.1-30.3-26.2-34.5
			c2.8-5.1,4.4-11,4.4-17.2V265c0-19.8-16.1-35.9-35.9-35.9H192l23-49.7c9.2-19.9,6-43.6-8.3-60.3l-11.4-13.3
			c-1.9-2.2-4.7-3.5-7.6-3.5c0,0-0.1,0-0.1,0c-3,0-5.7,1.4-7.6,3.6l-34.8,42c-3.5,4.3-2.9,10.6,1.3,14.1s10.6,2.9,14.1-1.3
			l27.2-32.9l3.6,4.3c9.2,10.8,11.3,26.1,5.4,38.9L167.3,235c-1.4,3.1-1.2,6.7,0.6,9.6s5,4.6,8.4,4.6h91.3c8.7,0,15.9,7.1,15.9,15.9
			v0.5c0,8.7-7.1,15.9-15.9,15.9h-47.6c-5.5,0-10,4.5-10,10s4.5,10,10,10h47.6h21.8c8.7,0,15.9,7.1,15.9,15.9v0.5
			c0,8.7-7.1,15.9-15.9,15.9h-69.4c-5.5,0-10,4.5-10,10s4.5,10,10,10h69.4c8.7,0,15.9,7.1,15.9,15.9v0.5c0,8.7-7.1,15.9-15.9,15.9
			h-31.6h-37.8c-5.5,0-10,4.5-10,10s4.5,10,10,10h37.8c8.7,0,15.9,7.1,15.9,15.9v0.5c0,8.7-7.1,15.9-15.9,15.9H122.9
			c-12.5,0-24.7-2.3-36.3-6.9L74,426.2V265.5l30.6-36.9c3.5-4.3,2.9-10.6-1.3-14.1c-4.3-3.5-10.6-2.9-14.1,1.3l-17.3,20.9
			c-1.8-2.3-4.7-3.8-7.9-3.8H10c-5.5,0-10,4.5-10,10V448c0,5.5,4.5,10,10,10h54c5.5,0,10-4.5,10-10v-0.3l5.3,2.1
			c4.2,1.6,8.4,3,12.7,4.2V482c0,16.5,13.5,30,30,30h360c16.5,0,30-13.5,30-30L512,114C512,114,512,114,512,114z M418,104
			c-5.5,0-10-4.5-10-10V34.1l69.9,69.9H418z M54,438H20V252.9h34V438z"/>
	</g>
</g>
<g>
	<g>
		<path class="st0" d="M428.6,158.9c-1.9-1.9-4.4-2.9-7.1-2.9s-5.2,1.1-7.1,2.9c-1.9,1.9-2.9,4.4-2.9,7.1s1.1,5.2,2.9,7.1
			c1.9,1.9,4.4,2.9,7.1,2.9s5.2-1.1,7.1-2.9c1.9-1.9,2.9-4.4,2.9-7.1S430.4,160.8,428.6,158.9z"/>
	</g>
</g>
<g>
	<g>
		<path class="st0" d="M381,156H250c-5.5,0-10,4.5-10,10s4.5,10,10,10h131c5.5,0,10-4.5,10-10S386.5,156,381,156z"/>
	</g>
</g>
<g>
	<g>
		<path class="st0" d="M421.9,208H311.5c-5.5,0-10,4.5-10,10s4.5,10,10,10h110.4c5.5,0,10-4.5,10-10S427.4,208,421.9,208z"/>
	</g>
</g>
<g>
	<g>
		<path class="st0" d="M421.5,260.8h-66.8c-5.5,0-10,4.5-10,10s4.5,10,10,10h66.8c5.5,0,10-4.5,10-10S427,260.8,421.5,260.8z"/>
	</g>
</g>
<g>
	<g>
		<path class="st0" d="M421.9,312.8h-67.2c-5.5,0-10,4.5-10,10s4.5,10,10,10h67.2c5.5,0,10-4.5,10-10S427.4,312.8,421.9,312.8z"/>
	</g>
</g>
<g>
	<g>
		<path class="st0" d="M333,104h-83c-5.5,0-10,4.5-10,10s4.5,10,10,10h83c5.5,0,10-4.5,10-10S338.5,104,333,104z"/>
	</g>
</g>
</svg>
