<?xml version="1.0" encoding="utf-8"?>
<!-- Generator: Adobe Illustrator 21.1.0, SVG Export Plug-In . SVG Version: 6.00 Build 0)  -->
<svg version="1.1" id="Capa_1" xmlns="http://www.w3.org/2000/svg" xmlns:xlink="http://www.w3.org/1999/xlink" x="0px" y="0px"
	 viewBox="0 0 501.9 501.9" style="enable-background:new 0 0 501.9 501.9;" xml:space="preserve">
<style type="text/css">
	.st0{fill:#FFFFFF;}
</style>
<path class="st0" d="M174.7,410.2c-25.3,0-45.8,20.5-45.8,45.9c0,25.3,20.5,45.8,45.8,45.8c25.3,0,45.8-20.5,45.8-45.8
	C220.6,430.8,200,410.2,174.7,410.2z"/>
<path class="st0" d="M320,410.2c-25.3,0-45.8,20.5-45.8,45.9c0,25.3,20.5,45.8,45.8,45.8c25.3,0,45.9-20.5,45.9-45.8
	C365.8,430.8,345.3,410.2,320,410.2z"/>
<path class="st0" d="M486.8,156.9c-8.3-8.3-20.7-13-33.8-13h-33.2v38.3h28.8l-40.1,158H93.1L51.1,101.7
	c-1.9-10.5-13.9-17.7-26.7-16.3C11.4,87,2.4,96.7,4.2,107.1l42.5,241.1c3,17.3,21.6,30.4,43.2,30.4h321.5
	c20.6,0,38.6-11.9,42.7-28.2l41.6-163.9C498.4,176,495.2,165.2,486.8,156.9z"/>
<path class="st0" d="M130.2,305h40.7c8.2,0,14.8-8.8,14.8-19.5V111.3c0-10.8-6.6-19.5-14.8-19.5h-40.7c-8.2,0-14.8,8.8-14.8,19.5
	v174.2C115.4,296.2,122,305,130.2,305z"/>
<path class="st0" d="M230,305h40.7c8.2,0,14.8-8.8,14.8-19.5V19.8c0-10.8-6.6-19.5-14.8-19.5H230c-8.2,0-14.8,8.7-14.8,19.5v265.7
	C215.2,296.2,221.8,305,230,305z"/>
<path class="st0" d="M334.4,305h40.7c8.2,0,14.8-8.8,14.8-19.5V68.3c0-10.8-6.6-19.5-14.8-19.5h-40.7c-8.2,0-14.8,8.7-14.8,19.5
	v217.2C319.6,296.2,326.3,305,334.4,305z"/>
</svg>
