<?xml version="1.0" encoding="utf-8"?>
<!-- Generator: Adobe Illustrator 21.1.0, SVG Export Plug-In . SVG Version: 6.00 Build 0)  -->
<svg version="1.1" id="Capa_1" xmlns="http://www.w3.org/2000/svg" xmlns:xlink="http://www.w3.org/1999/xlink" x="0px" y="0px"
	 viewBox="0 0 451.4 451.4" style="enable-background:new 0 0 451.4 451.4;" xml:space="preserve">
<style type="text/css">
	.st0{fill:#FFFFFF;}
</style>
<g>
	<g>
		<g>
			<path class="st0" d="M212,192.8V99.3c0-10.9-9.3-19.7-20.7-19.7s-20.7,8.8-20.7,19.7v93.5c0,10.9,9.3,19.7,20.7,19.7
				C202.8,212.5,212,203.7,212,192.8z"/>
			<path class="st0" d="M284.5,192.8V30.6c0-10.9-9.3-19.6-20.7-19.6c-11.4,0-20.7,8.8-20.7,19.6v162.2c0,10.9,9.3,19.7,20.7,19.7
				C275.2,212.5,284.5,203.7,284.5,192.8z"/>
			<path class="st0" d="M357.1,192.8V71.8c0-10.9-9.3-19.6-20.7-19.6s-20.7,8.8-20.7,19.6v120.9c0,10.9,9.3,19.7,20.7,19.7
				S357.1,203.7,357.1,192.8z"/>
			<path class="st0" d="M429.5,189.4V31.1c0-12.2-9.3-22.1-20.7-22.1S388,18.8,388,31.1v158.3c0,12.2,9.3,22.1,20.7,22.1
				S429.5,201.6,429.5,189.4z"/>
			<path class="st0" d="M115.6,374C115.6,374,115.7,374,115.6,374C115.7,374,115.7,374,115.6,374L115.6,374
				C115.7,374,115.7,374,115.6,374h0.2l0,0c33.6,0.5,54-27.4,54.5-73.3c0.3-31.9-20.5-50.1-54.4-50.9l0,0c0,0-0.1,0-0.2,0l0,0
				c0,0,0,0-0.1,0h-0.1l0,0c-0.1,0-0.1,0-0.1,0l0,0c-33.9,0.9-54.8,19.1-54.4,50.9C61.6,346.6,82,374.5,115.6,374L115.6,374
				L115.6,374z"/>
			<path class="st0" d="M335.6,374L335.6,374L335.6,374L335.6,374c0.1,0,0.1,0,0.1,0h0.1l0,0c33.6,0.5,54-27.4,54.5-73.3
				c0.3-31.9-20.5-50.1-54.4-50.9l0,0c-0.1,0-0.1,0-0.2,0l0,0c0,0,0,0-0.1,0h-0.1l0,0c-0.1,0-0.1,0-0.1,0l0,0
				c-33.9,0.9-54.8,19.1-54.4,50.9C281.5,346.6,301.9,374.5,335.6,374L335.6,374C335.5,374,335.5,374,335.6,374z"/>
			<path class="st0" d="M432.3,408.9l-54.6-20.7L364.9,378c-3.4-2.7-8.4-2.5-11.5,0.5l-17.8,16.8l-17.8-16.8
				c-3.1-3-8.1-3.1-11.5-0.5l-12.8,10.2L239,408.9c-6.6,2.5-10.7,12.3-13.3,23.9c-2.7-11.5-6.8-21.4-13.3-23.9l-54.6-20.7L145,378
				c-3.4-2.7-8.4-2.5-11.5,0.5l-17.8,16.8l-17.8-16.8c-3.1-3-8.1-3.1-11.5-0.5l-12.8,10.2L19,408.9C1.5,415.6,1.5,474.6,0,480h451.4
				C449.9,474.6,449.9,415.5,432.3,408.9z"/>
			<path class="st0" d="M68.6,191.6V70.7c0-10.9-9.3-19.6-20.7-19.6s-20.7,8.8-20.7,19.6v120.9c0,10.9,9.3,19.7,20.7,19.7
				S68.6,202.5,68.6,191.6z"/>
			<path class="st0" d="M141,191.6V50c0-10.9-9.3-19.7-20.7-19.7S99.5,39.1,99.5,50v141.5c0,10.9,9.3,19.7,20.7,19.7
				S141,202.5,141,191.6z"/>
		</g>
	</g>
</g>
</svg>
