<?xml version="1.0" encoding="utf-8"?>
<!-- Generator: Adobe Illustrator 21.1.0, SVG Export Plug-In . SVG Version: 6.00 Build 0)  -->
<svg version="1.1" id="Capa_1" xmlns="http://www.w3.org/2000/svg" xmlns:xlink="http://www.w3.org/1999/xlink" x="0px" y="0px"
	 viewBox="0 0 289.8 289.8" style="enable-background:new 0 0 289.8 289.8;" xml:space="preserve">
<style type="text/css">
	.st0{fill:#FFFFFF;}
</style>
<g>
	<path class="st0" d="M288.8,136.5c-1.5-3.3-4.7-5.5-8.2-5.5h-17.2C262.7,58.6,207.6,0,139.8,0c-8.3,0-15,7.2-15,16.1
		s6.7,16.1,15,16.1c51.2,0,92.9,44.2,93.6,98.9h-17.1c-3.5,0-6.6,2.1-8.2,5.5c-1.5,3.3-1.1,7.3,1,10.3l32.2,44.5
		c1.7,2.4,4.4,3.8,7.2,3.8s5.5-1.4,7.2-3.8l32.2-44.5C290,143.8,290.4,139.8,288.8,136.5z"/>
	<path class="st0" d="M139.8,237.6c-8.3,0-15,7.2-15,16.1v20c0,8.9,6.7,16.1,15,16.1s15-7.2,15-16.1v-20
		C154.8,244.8,148.1,237.6,139.8,237.6z"/>
	<path class="st0" d="M73.8,49.4c2.8,5.2,7.8,8,13,8c2.5,0,5.1-0.7,7.5-2.2c7.2-4.4,9.6-14.3,5.5-22L90.4,16
		c-4.1-7.7-13.3-10.3-20.5-5.9c-7.2,4.4-9.6,14.3-5.5,22L73.8,49.4z"/>
	<path class="st0" d="M205.9,230.4c-4.1-7.7-13.3-10.3-20.5-5.9c-7.2,4.4-9.6,14.3-5.5,22l9.3,17.3c2.8,5.2,7.8,8,13,8
		c2.5,0,5.1-0.7,7.5-2.2c7.2-4.4,9.6-14.3,5.5-22L205.9,230.4z"/>
	<path class="st0" d="M24.2,86.9l16.2,10c2.4,1.5,4.9,2.2,7.5,2.2c5.2,0,10.2-2.9,13-8c4.1-7.7,1.7-17.5-5.5-22l-16.2-10
		c-7.2-4.4-16.3-1.8-20.5,5.9C14.6,72.6,17,82.5,24.2,86.9z"/>
	<path class="st0" d="M48.7,139.9c0-8.9-6.7-16.1-15-16.1H15c-8.3,0-15,7.2-15,16.1c0,8.9,6.7,16.1,15,16.1h18.7
		C42,156,48.7,148.8,48.7,139.9z"/>
	<path class="st0" d="M60.9,188.7c-4.1-7.7-13.3-10.3-20.5-5.9l-16.2,10c-7.2,4.4-9.6,14.3-5.5,22c2.8,5.2,7.8,8,13,8
		c2.5,0,5.1-0.7,7.5-2.2l16.2-10C62.6,206.3,65,196.4,60.9,188.7z"/>
	<path class="st0" d="M94.3,224.5c-7.2-4.4-16.3-1.8-20.5,5.9l-9.3,17.3c-4.1,7.7-1.7,17.5,5.5,22c2.4,1.5,4.9,2.2,7.5,2.2
		c5.2,0,10.2-2.9,13-8l9.3-17.3C103.9,238.8,101.4,228.9,94.3,224.5z"/>
</g>
</svg>
