<?xml version="1.0" encoding="utf-8"?>
<!-- Generator: Adobe Illustrator 21.1.0, SVG Export Plug-In . SVG Version: 6.00 Build 0)  -->
<svg version="1.1" id="Layer_1" xmlns="http://www.w3.org/2000/svg" xmlns:xlink="http://www.w3.org/1999/xlink" x="0px" y="0px"
	 viewBox="0 0 100 100" style="enable-background:new 0 0 100 100;" xml:space="preserve">
<g>
	<path d="M37.3,30.1c-1.2,0-2.2-1-2.2-2.2v-9.2c0-1.2,1-2.2,2.2-2.2c1.2,0,2.2,1,2.2,2.2v9.2C39.5,29.1,38.5,30.1,37.3,30.1z"/>
	<path d="M64.5,30.1c-1.2,0-2.2-1-2.2-2.2v-9.2c0-1.2,1-2.2,2.2-2.2c1.2,0,2.2,1,2.2,2.2v9.2C66.7,29.1,65.7,30.1,64.5,30.1z"/>
	<path d="M42,73.3h-2.6v-12h1.9c0.1-0.5,0.2-1,0.4-1.6h-2.3V48.2H49c0.8-0.7,1.7-1.4,2.6-2V35.4h10.7v7.1c0.5,0,1-0.1,1.6-0.1v-7.1
		h9.5v8.8c1,0.4,1.9,0.9,2.9,1.4V28.2c0-2.9-2.4-5.2-5.2-5.2h-2.2v4.9c0,2.4-1.9,4.3-4.3,4.3c-2.4,0-4.3-1.9-4.3-4.3v-4.9H41.6v4.9
		c0,2.4-1.9,4.3-4.3,4.3c-2.4,0-4.3-1.9-4.3-4.3v-4.9h-2.2c-2.9,0-5.2,2.4-5.2,5.2V71c0,2.9,2.4,5.2,5.2,5.2h12.3
		C42.7,75.3,42.3,74.3,42,73.3z M39.4,35.4h10.7v11.2H39.4V35.4z M37.8,73.3h-7.1c-1.3,0-2.4-1.1-2.4-2.4v-9.6h9.4V73.3z M37.8,59.8
		h-9.4V48.2h9.4V59.8z M37.8,46.6h-9.4V35.4h9.4V46.6z"/>
	<path d="M64.5,86.2c-11.1,0-20.1-9-20.1-20.1c0-11.1,9-20.1,20.1-20.1c11.1,0,20.1,9,20.1,20.1C84.6,77.1,75.6,86.2,64.5,86.2z
		 M64.5,50.6c-8.5,0-15.5,6.9-15.5,15.5c0,8.5,6.9,15.5,15.5,15.5C73,81.5,80,74.6,80,66.1C80,57.5,73,50.6,64.5,50.6z"/>
	<path d="M75,60c0-0.2-0.1-0.5-0.3-0.6c0,0,0,0,0,0c0,0-0.1-0.1-0.1-0.1l-9.7-6.1c-0.3-0.2-0.6-0.2-0.9,0l-9.7,6.1
		c0,0-0.1,0-0.1,0.1c0,0-0.1,0-0.1,0.1c0,0-0.1,0.1-0.1,0.1c0,0,0,0-0.1,0.1c0,0,0,0.1-0.1,0.1c0,0,0,0,0,0.1c0,0.1,0,0.1,0,0.2
		v12.1c0,0.3,0.2,0.6,0.4,0.7l9.7,6.1c0,0,0,0,0,0c0,0,0,0,0,0c0,0,0.1,0,0.1,0.1c0,0,0,0,0.1,0c0.1,0,0.2,0,0.2,0
		c0.1,0,0.2,0,0.2,0c0,0,0,0,0.1,0c0,0,0.1,0,0.1-0.1c0,0,0,0,0,0c0,0,0,0,0,0l9.7-6.1c0.3-0.2,0.4-0.4,0.4-0.7L75,60
		C75,60,75,60,75,60z M59.8,57.9l8,5L64.5,65l-8-5L59.8,57.9z M64.5,55l8,5l-3,1.9l-8-5L64.5,55z M55.7,61.6l7.9,5v10.1l-7.9-5V61.6
		z M65.3,76.6V66.5l3.2-2v1.2c0,0.5,0.4,0.9,0.9,0.9c0.5,0,0.9-0.4,0.9-0.9v-2.3l3-1.9v10.1L65.3,76.6z"/>
</g>
</svg>
