<?xml version="1.0" encoding="utf-8"?>
<!-- Generator: Adobe Illustrator 16.0.0, SVG Export Plug-In . SVG Version: 6.00 Build 0)  -->
<!DOCTYPE svg PUBLIC "-//W3C//DTD SVG 1.1//EN" "http://www.w3.org/Graphics/SVG/1.1/DTD/svg11.dtd">
<svg version="1.1" id="Layer_1" xmlns="http://www.w3.org/2000/svg" xmlns:xlink="http://www.w3.org/1999/xlink" x="0px" y="0px"
	 width="100px" height="100px" viewBox="429.88 220 100 100" enable-background="new 429.88 220 100 100" xml:space="preserve">
<path fill="none" stroke="#FFFFFF" stroke-width="2.5" stroke-linecap="round" stroke-linejoin="round" stroke-miterlimit="10" d="
	M494.339,241.579c2.557-2.449,6.029-3.955,9.85-3.955c7.868,0,14.248,6.38,14.248,14.248c0,7.869-6.38,14.249-14.248,14.249
	c-5.255,0-9.542-2.356-12.011-6.592 M467.891,259.04c-2.469,4.234-7.061,7.081-12.316,7.081c-7.868,0-14.247-6.38-14.247-14.249
	c0-7.868,6.379-14.248,14.247-14.248c3.822,0,7.292,1.506,9.852,3.955 M449.102,273.603l-7.043-2.969
	c-5.047,4.588-8.216,11.206-8.216,18.564c0,1.059,0.067,2.103,0.192,3.127l18.669,1.183 M507.184,293.508l18.541-1.183
	c0.128-1.024,0.192-2.068,0.192-3.127c0-7.358-3.169-13.977-8.216-18.564l-7.043,2.969 M495.539,249.227
	c0,8.614-6.982,15.596-15.595,15.596c-8.614,0-15.596-6.981-15.596-15.596c0-8.613,6.981-15.596,15.596-15.596
	C488.557,233.631,495.539,240.612,495.539,249.227z M479.941,285.575v-15.773 M469.221,272.523l-7.738-2.755
	c-5.522,5.021-8.989,12.263-8.989,20.315c0,1.158,0.072,2.303,0.212,3.425l27.312,12.861l27.167-12.861
	c0.139-1.122,0.211-2.265,0.211-3.425c0-8.055-3.468-15.298-8.992-20.319l-7.708,3.249 M491.255,272.836
	c-12.072-6.83-22.627,0.003-22.627,0.003l11.222,14.328L491.255,272.836z M480.009,300.044v0.801 M480.009,296.329v-4.751"/>
</svg>
