<?xml version="1.0" encoding="utf-8"?>
<!-- Generator: Adobe Illustrator 21.1.0, SVG Export Plug-In . SVG Version: 6.00 Build 0)  -->
<svg version="1.1" id="Layer_1" xmlns="http://www.w3.org/2000/svg" xmlns:xlink="http://www.w3.org/1999/xlink" x="0px" y="0px"
	 viewBox="0 0 100 100" style="enable-background:new 0 0 100 100;" xml:space="preserve">
<g>
	<rect x="74.3" y="72.4" width="6.5" height="9.8"/>
	<path d="M49.7,30.2c0.2,0.8,0.4,1.7,0.5,2.6c0,0.2,0.1,0.4,0.1,0.7c0.1,1,0.2,2,0.2,3.1v1v0c0,7.5-1.9,14.8-5.4,21.3
		c-0.5,0.9-1,1.9-1.6,2.8l-2.8,4.4v16.3h22.9V39.7V30H49.6C49.6,30,49.7,30.1,49.7,30.2z M50.5,78.9h-6.5v-6.5h6.5V78.9z M50.5,69.1
		h-6.5v-6.5h6.5V69.1z M53.7,33.2h6.5v6.5h-6.5V33.2z M53.7,43h6.5v6.5h-6.5V43z M53.7,52.8h6.5v6.5h-6.5V52.8z M53.7,62.6h6.5v6.5
		h-6.5V62.6z M53.7,72.4h6.5v6.5h-6.5V72.4z"/>
	<path d="M48.5,37.4c0-0.7,0-1.4-0.1-2.1c0-0.1,0-0.2,0-0.3c-0.1-0.6-0.2-1.3-0.3-1.9c0,0,0,0,0,0c-0.3-1.4-0.8-2.8-1.4-4.1
		c0,0,0,0,0-0.1c-1-2.1-2.3-4-4-5.6c-3.7-3.6-8.5-5.5-13.6-5.5c-0.2,0-0.4,0-0.6,0c-10.5,0.3-19,9.5-19,20.5c0,7.3,2.1,14.4,6,20.6
		L29,80.3l10.3-16.2v0l3.3-5.2c0.5-0.8,0.9-1.6,1.4-2.4c3-5.6,4.6-11.8,4.6-18.2V37.4z M29,50.5c-7.2,0-13.1-5.9-13.1-13.1
		S21.8,24.3,29,24.3S42,30.2,42,37.4S36.2,50.5,29,50.5z"/>
	<circle cx="29" cy="37.4" r="6.5"/>
	<path d="M87.4,43H67.8h-3.3v3.3v6.5v3.3v6.5v19.6h3.3H71V69.1h13.1v13.1h3.3h3.3V69.1v-6.5v-6.5v-3.3v-6.5V43H87.4z M71,62.6h-3.3
		v-6.5H71V62.6z M71,52.8h-3.3v-6.5H71V52.8z M80.8,62.6h-6.5v-6.5h6.5V62.6z M80.8,52.8h-6.5v-6.5h6.5V52.8z M87.4,62.6h-3.3v-6.5
		h3.3V62.6z M87.4,52.8h-3.3v-6.5h3.3V52.8z"/>
</g>
</svg>
