<?xml version="1.0" encoding="utf-8"?>
<!-- Generator: Adobe Illustrator 16.0.0, SVG Export Plug-In . SVG Version: 6.00 Build 0)  -->
<!DOCTYPE svg PUBLIC "-//W3C//DTD SVG 1.1//EN" "http://www.w3.org/Graphics/SVG/1.1/DTD/svg11.dtd">
<svg version="1.1" id="Layer_1" xmlns="http://www.w3.org/2000/svg" xmlns:xlink="http://www.w3.org/1999/xlink" x="0px" y="0px"
	 width="100px" height="100px" viewBox="0 0 100 100" enable-background="new 0 0 100 100" xml:space="preserve">
<g>
	<path fill="none" stroke="#FFFFFF" stroke-width="3" stroke-linecap="round" stroke-linejoin="round" stroke-miterlimit="10" d="
		M64.289,18.162c2.529-2.422,5.961-3.909,9.738-3.909c7.776,0,14.082,6.306,14.082,14.083c0,7.778-6.306,14.085-14.082,14.085
		c-5.197,0-9.42-2.311-11.861-6.496"/>
	<path fill="none" stroke="#FFFFFF" stroke-width="3" stroke-linecap="round" stroke-linejoin="round" stroke-miterlimit="10" d="
		M38.148,35.421c-2.439,4.187-6.979,7-12.176,7c-7.777,0-14.082-6.307-14.082-14.085c0-7.777,6.305-14.083,14.082-14.083
		c3.777,0,7.209,1.487,9.737,3.909"/>
	<path fill="none" stroke="#FFFFFF" stroke-width="3" stroke-linecap="round" stroke-linejoin="round" stroke-miterlimit="10" d="
		M19.577,49.816l-6.961-2.934c-4.989,4.534-8.121,11.077-8.121,18.35c0,1.045,0.065,2.078,0.188,3.092l18.453,1.168"/>
	<path fill="none" stroke="#FFFFFF" stroke-width="3" stroke-linecap="round" stroke-linejoin="round" stroke-miterlimit="10" d="
		M76.986,69.492l18.33-1.168c0.123-1.014,0.188-2.047,0.188-3.092c0-7.273-3.133-13.814-8.121-18.35l-6.961,2.934"/>
	
		<circle fill="none" stroke="#FFFFFF" stroke-width="3" stroke-linecap="round" stroke-linejoin="round" stroke-miterlimit="10" cx="50.063" cy="25.72" r="15.416"/>
	
		<line fill="none" stroke="#FFFFFF" stroke-width="3" stroke-linecap="round" stroke-linejoin="round" stroke-miterlimit="10" x1="50.061" y1="46.06" x2="50.061" y2="58.26"/>
	<path fill="none" stroke="#FFFFFF" stroke-width="3" stroke-linecap="round" stroke-linejoin="round" stroke-miterlimit="10" d="
		M65.342,75.006l11.646-5.514c0.139-1.109,0.209-2.238,0.209-3.385c0-7.963-3.429-15.123-8.89-20.086l-7.618,3.211"/>
	<path fill="none" stroke="#FFFFFF" stroke-width="3" stroke-linecap="round" stroke-linejoin="round" stroke-miterlimit="10" d="
		M39.463,48.751l-7.648-2.725c-5.459,4.965-8.887,12.122-8.887,20.081c0,1.146,0.071,2.275,0.21,3.385l10.973,5.166"/>
	<path fill="none" stroke="#FFFFFF" stroke-width="3" stroke-linecap="round" stroke-linejoin="round" stroke-miterlimit="10" d="
		M61.244,49.058c-11.936-6.75-22.368,0.004-22.368,0.004l11.093,9.643L61.244,49.058z"/>
	<path fill="#FFFFFF" d="M49.487,58.891c-8.507,0-15.402,6.895-15.402,15.402c0,8.506,6.896,15.402,15.402,15.402
		c8.506,0,15.401-6.896,15.401-15.402C64.889,65.785,57.993,58.891,49.487,58.891z M47.089,82.191
		c-0.475,0.479-1.242,0.496-1.738,0.041l-7.428-6.805c-0.014-0.012-0.023-0.023-0.041-0.035c-0.5-0.48-0.52-1.279-0.037-1.781
		c0.479-0.506,1.275-0.523,1.779-0.039l6.537,5.984l13.166-13.166c0.492-0.49,1.291-0.49,1.785,0c0.49,0.492,0.49,1.291,0,1.783
		L47.089,82.191z"/>
</g>
</svg>
