<?xml version="1.0" encoding="iso-8859-1"?>
<!-- Generator: Adobe Illustrator 19.0.0, SVG Export Plug-In . SVG Version: 6.00 Build 0)  -->
<svg version="1.1" id="Capa_1" xmlns="http://www.w3.org/2000/svg" xmlns:xlink="http://www.w3.org/1999/xlink" x="0px" y="0px"
	 viewBox="0 0 480.048 480.048" style="enable-background:new 0 0 480.048 480.048;" xml:space="preserve">
<g>
	<g>
		<g>
			<path d="M156.136,44.16l0.024,0.024c37.432-37.48,98.16-37.52,135.64-0.088c0.029,0.029,0.059,0.059,0.088,0.088
				c3.13,3.13,8.206,3.13,11.336,0c3.13-3.13,3.13-8.206,0-11.336c-43.661-43.741-114.515-43.805-158.256-0.144
				c-0.048,0.048-0.096,0.096-0.144,0.144c-3.069,3.178-2.981,8.243,0.197,11.312C148.121,47.154,153.036,47.154,156.136,44.16z"/>
			<path d="M269.248,74.824c1.5,1.5,3.534,2.344,5.656,2.344c4.418-0.001,7.999-3.583,7.998-8.002c0-2.121-0.843-4.154-2.342-5.654
				c-31.135-31.224-81.687-31.296-112.911-0.161c-0.054,0.054-0.108,0.107-0.161,0.161c-3.178,3.069-3.266,8.134-0.197,11.312
				c3.069,3.178,8.134,3.266,11.312,0.197c0.067-0.065,0.132-0.13,0.197-0.197c24.892-24.977,65.318-25.045,90.295-0.153
				C269.146,74.722,269.197,74.773,269.248,74.824z"/>
			<path d="M189.83,105.351c3.054,3.192,8.118,3.304,11.311,0.25c0.063-0.061,0.126-0.122,0.187-0.185
				c12.72-12.079,32.672-12.079,45.392,0c3.193,3.054,8.257,2.942,11.311-0.25c2.983-3.118,2.956-8.041-0.063-11.126
				c-18.784-18.657-49.104-18.657-67.888,0h0C186.888,97.094,186.776,102.158,189.83,105.351z"/>
			<path d="M440.024,0.048h-96c-13.255,0-24,10.745-24,24v104h-280c-13.255,0-24,10.745-24,24v224c0,13.255,10.745,24,24,24h152v32
				h-48c-13.255,0-24,10.745-24,24v24h208v-24c0-13.255-10.745-24-24-24h-48v-32h152c13.255,0,24-10.745,24-24v-136h8
				c13.255,0,24-10.745,24-24v-192C464.024,10.793,453.279,0.048,440.024,0.048z M344.024,240.048h40v112h-320v-176h256v40
				C320.024,229.303,330.769,240.048,344.024,240.048z M304.024,448.048c4.418,0,8,3.582,8,8v8h-176v-8c0-4.418,3.582-8,8-8H304.024
				z M208.024,432.048v-32h32v32H208.024z M416.024,376.048c0,4.418-3.582,8-8,8h-368c-4.418,0-8-3.582-8-8v-224
				c0-4.418,3.582-8,8-8h280v16h-272v208h352v-128h16V376.048z M448.024,216.048c0,4.418-3.582,8-8,8h-96c-4.418,0-8-3.582-8-8v-8
				h112V216.048z M448.024,192.048h-112v-152h112V192.048z M336.024,24.048c0-4.418,3.582-8,8-8h96c4.418,0,8,3.582,8,8H336.024z"/>
			<rect x="384.024" y="112.048" width="16" height="16"/>
			<rect x="416.024" y="112.048" width="16" height="16"/>
			<rect x="352.024" y="112.048" width="16" height="16"/>
			<rect x="216.024" y="256.048" width="16" height="16"/>
			<rect x="248.024" y="256.048" width="16" height="16"/>
			<rect x="184.024" y="256.048" width="16" height="16"/>
		</g>
	</g>
</g>
<g>
</g>
<g>
</g>
<g>
</g>
<g>
</g>
<g>
</g>
<g>
</g>
<g>
</g>
<g>
</g>
<g>
</g>
<g>
</g>
<g>
</g>
<g>
</g>
<g>
</g>
<g>
</g>
<g>
</g>
</svg>
