<?xml version="1.0" encoding="utf-8"?>
<!-- Generator: Adobe Illustrator 21.1.0, SVG Export Plug-In . SVG Version: 6.00 Build 0)  -->
<svg version="1.1" id="Layer_1" xmlns="http://www.w3.org/2000/svg" xmlns:xlink="http://www.w3.org/1999/xlink" x="0px" y="0px"
	 viewBox="0 0 100 100" style="enable-background:new 0 0 100 100;" xml:space="preserve">
<style type="text/css">
	.st0{fill:#FFFFFF;}
</style>
<g>
	<path class="st0" d="M44.2,27.8c-7.9,0-14.4,6.5-14.4,14.4s6.5,14.4,14.4,14.4c7.9,0,14.4-6.5,14.4-14.4
		C58.6,34.3,52.2,27.8,44.2,27.8z M44.2,54.3c-6.7,0-12.1-5.4-12.1-12.1c0-6.6,5.4-12.1,12.1-12.1c6.6,0,12.1,5.4,12.1,12.1
		C56.3,48.9,50.9,54.3,44.2,54.3z"/>
	<path class="st0" d="M68.4,54.3c2.3-4.2,3.8-8.4,3.8-12.1c0-15.5-12.6-28-28-28c-15.5,0-28,12.6-28,28c0,15.2,26.1,39.3,27.2,40.4
		l0.8,0.7l0.8-0.7c0.4-0.4,3.7-3.4,7.9-7.9c2,6.5,8,11.2,15.1,11.2c8.7,0,15.8-7.1,15.8-15.8C83.8,61.5,76.9,54.5,68.4,54.3z
		 M52.4,71.8c-3.6,3.9-6.7,7-8.1,8.3C39.8,75.9,18.5,55,18.5,42.2c0-14.2,11.5-25.7,25.7-25.7c14.2,0,25.7,11.5,25.7,25.7
		c0,3.6-1.7,7.9-4.3,12.2c-7.6,1.1-13.4,7.7-13.4,15.6C52.2,70.6,52.3,71.2,52.4,71.8z M68,83.5c-7.4,0-13.4-6-13.4-13.4
		s6-13.4,13.4-13.4c7.4,0,13.4,6,13.4,13.4S75.4,83.5,68,83.5z"/>
	<path class="st0" d="M65.5,77c-0.4,0.4-1,0.4-1.4,0l-5.9-5.4c0,0,0,0,0,0c-0.4-0.4-0.4-1,0-1.4c0.4-0.4,1-0.4,1.4,0l5.2,4.7
		l10.4-10.4c0.4-0.4,1-0.4,1.4,0c0.4,0.4,0.4,1,0,1.4L65.5,77z"/>
</g>
</svg>
