<?xml version="1.0" encoding="utf-8"?>
<!-- Generator: Adobe Illustrator 21.1.0, SVG Export Plug-In . SVG Version: 6.00 Build 0)  -->
<svg version="1.1" id="Layer_1" xmlns="http://www.w3.org/2000/svg" xmlns:xlink="http://www.w3.org/1999/xlink" x="0px" y="0px"
	 viewBox="0 0 100 100" style="enable-background:new 0 0 100 100;" xml:space="preserve">
<style type="text/css">
	.st0{fill:#FFFFFF;}
</style>
<g>
	<path class="st0" d="M75.3,75.4c0.5,0.5,0.5,1.2,0,1.7s-1.2,0.5-1.7,0L68,71.4l-5.6,5.6c-0.5,0.5-1.2,0.5-1.7,0
		c-0.5-0.5-0.5-1.2,0-1.7l5.6-5.6l-5.6-5.6c-0.5-0.5-0.5-1.2,0-1.7c0.5-0.5,1.2-0.5,1.7,0l5.6,5.6l5.6-5.6c0.5-0.5,1.2-0.5,1.7,0
		c0.5,0.5,0.5,1.2,0,1.7l-5.6,5.6L75.3,75.4z"/>
	<path class="st0" d="M44.3,28.2c-7.8,0-14.1,6.3-14.1,14.1c0,7.8,6.3,14.1,14.1,14.1c7.8,0,14.1-6.3,14.1-14.1
		C58.5,34.6,52.1,28.2,44.3,28.2z M44.3,54.2c-6.5,0-11.8-5.3-11.8-11.8c0-6.5,5.3-11.8,11.8-11.8c6.5,0,11.8,5.3,11.8,11.8
		C56.2,48.9,50.9,54.2,44.3,54.2z"/>
	<path class="st0" d="M68.1,54.2c2.3-4.2,3.8-8.3,3.8-11.8c0-15.2-12.3-27.5-27.5-27.5c-15.2,0-27.5,12.3-27.5,27.5
		C16.8,57.3,42.5,81,43.6,82l0.8,0.7l0.8-0.7c0.4-0.3,3.6-3.4,7.8-7.8c1.9,6.3,7.8,11,14.8,11c8.5,0,15.5-6.9,15.5-15.5
		C83.2,61.3,76.4,54.4,68.1,54.2z M52.3,71.4c-3.5,3.9-6.6,6.8-8,8.2C40,75.4,19.1,54.9,19.1,42.4c0-13.9,11.3-25.2,25.2-25.2
		c13.9,0,25.2,11.3,25.2,25.2c0,3.5-1.7,7.7-4.2,12c-7.4,1.1-13.2,7.5-13.2,15.3C52.2,70.3,52.2,70.8,52.3,71.4z M67.7,82.9
		c-7.3,0-13.2-5.9-13.2-13.2s5.9-13.2,13.2-13.2c7.3,0,13.2,5.9,13.2,13.2S75,82.9,67.7,82.9z"/>
</g>
</svg>
