<?xml version="1.0" encoding="utf-8"?>
<!-- Generator: Adobe Illustrator 16.0.0, SVG Export Plug-In . SVG Version: 6.00 Build 0)  -->
<!DOCTYPE svg PUBLIC "-//W3C//DTD SVG 1.1//EN" "http://www.w3.org/Graphics/SVG/1.1/DTD/svg11.dtd">
<svg version="1.1" id="Layer_1" xmlns="http://www.w3.org/2000/svg" xmlns:xlink="http://www.w3.org/1999/xlink" x="0px" y="0px"
	 width="100px" height="100px" viewBox="0 0 100 100" enable-background="new 0 0 100 100" xml:space="preserve">
<g>
	<path fill="none" stroke="#FFFFFF" stroke-width="3" stroke-linecap="round" stroke-linejoin="round" stroke-miterlimit="10" d="
		M64.289,18.162c2.529-2.422,5.961-3.909,9.738-3.909c7.775,0,14.082,6.307,14.082,14.083c0,7.778-6.307,14.085-14.082,14.085
		c-5.197,0-9.42-2.311-11.861-6.496"/>
	<path fill="none" stroke="#FFFFFF" stroke-width="3" stroke-linecap="round" stroke-linejoin="round" stroke-miterlimit="10" d="
		M38.148,35.421c-2.439,4.188-6.979,7-12.176,7c-7.777,0-14.082-6.307-14.082-14.085c0-7.776,6.305-14.083,14.082-14.083
		c3.777,0,7.209,1.487,9.736,3.909"/>
	<path fill="none" stroke="#FFFFFF" stroke-width="3" stroke-linecap="round" stroke-linejoin="round" stroke-miterlimit="10" d="
		M19.578,49.815l-6.961-2.934c-4.99,4.534-8.121,11.077-8.121,18.351c0,1.045,0.064,2.078,0.188,3.092l18.453,1.168"/>
	<path fill="none" stroke="#FFFFFF" stroke-width="3" stroke-linecap="round" stroke-linejoin="round" stroke-miterlimit="10" d="
		M76.986,69.492l18.33-1.168c0.123-1.014,0.188-2.047,0.188-3.092c0-7.273-3.133-13.814-8.121-18.351l-6.961,2.934"/>
	
		<circle fill="none" stroke="#FFFFFF" stroke-width="3" stroke-linecap="round" stroke-linejoin="round" stroke-miterlimit="10" cx="50.063" cy="25.72" r="15.416"/>
	
		<line fill="none" stroke="#FFFFFF" stroke-width="3" stroke-linecap="round" stroke-linejoin="round" stroke-miterlimit="10" x1="50.062" y1="46.061" x2="50.062" y2="58.26"/>
	<path fill="none" stroke="#FFFFFF" stroke-width="3" stroke-linecap="round" stroke-linejoin="round" stroke-miterlimit="10" d="
		M65.342,75.006l11.646-5.514c0.139-1.109,0.209-2.238,0.209-3.385c0-7.963-3.43-15.123-8.891-20.086l-7.617,3.21"/>
	<path fill="none" stroke="#FFFFFF" stroke-width="3" stroke-linecap="round" stroke-linejoin="round" stroke-miterlimit="10" d="
		M39.463,48.751l-7.647-2.725c-5.459,4.965-8.887,12.122-8.887,20.081c0,1.146,0.071,2.274,0.21,3.385l10.973,5.166"/>
	<path fill="none" stroke="#FFFFFF" stroke-width="3" stroke-linecap="round" stroke-linejoin="round" stroke-miterlimit="10" d="
		M61.244,49.058c-11.936-6.749-22.367,0.004-22.367,0.004l11.092,9.644L61.244,49.058z"/>
	<path fill="#FFFFFF" d="M49.487,58.891c-8.507,0-15.401,6.896-15.401,15.402c0,8.506,6.896,15.402,15.401,15.402
		c8.507,0,15.401-6.896,15.401-15.402C64.889,65.785,57.994,58.891,49.487,58.891z M58.071,80.922c0.54,0.54,0.54,1.414,0,1.955
		c-0.541,0.54-1.415,0.54-1.956,0l-6.628-6.628l-6.629,6.628c-0.54,0.54-1.414,0.54-1.955,0c-0.54-0.541-0.54-1.415,0-1.955
		l6.628-6.629l-6.628-6.629c-0.54-0.54-0.54-1.414,0-1.955c0.541-0.54,1.415-0.54,1.955,0l6.629,6.628l6.628-6.628
		c0.541-0.54,1.415-0.54,1.956,0c0.54,0.541,0.54,1.415,0,1.955l-6.628,6.629L58.071,80.922z"/>
</g>
</svg>
