<?xml version="1.0" encoding="utf-8"?>
<!-- Generator: Adobe Illustrator 21.1.0, SVG Export Plug-In . SVG Version: 6.00 Build 0)  -->
<svg version="1.1" id="Capa_1" xmlns="http://www.w3.org/2000/svg" xmlns:xlink="http://www.w3.org/1999/xlink" x="0px" y="0px"
	 viewBox="0 0 462.8 462.8" style="enable-background:new 0 0 462.8 462.8;" xml:space="preserve">
<style type="text/css">
	.st0{fill:#FFFFFF;}
</style>
<g>
	<path class="st0" d="M53.1,293.6H11.5c-4.9,0-9,5.1-9,11.3v21.8v95.8v21.8c0,6.2,4,11.3,9,11.3h41.6c4.9,0,9-5.1,9-11.3v-21.8
		v-95.8v-21.8C62.1,298.6,58.1,293.6,53.1,293.6z"/>
	<path class="st0" d="M137.2,230.9H95.6c-4.9,0-9,5.1-9,11.3v84.5v33.1v84.5c0,6.2,4,11.3,9,11.3h41.6c4.9,0,9-5.1,9-11.3v-84.5
		v-33.1v-84.5C146.1,235.9,142.1,230.9,137.2,230.9z"/>
	<path class="st0" d="M252.2,264.3V139h36.2c6.7,0,10.8-7.3,7.2-13L221.9,7.4c-3.3-5.4-11.2-5.4-14.5,0l-73.8,118.5
		c-3.5,5.7,0.5,13,7.2,13H177v305.4c0,6.2,5.1,11.3,11.3,11.3h52.5c6.2,0,11.3-5.1,11.3-11.2c-21.1-24.1-33.9-55.6-33.9-90.1
		C218.2,319.9,231,288.4,252.2,264.3z"/>
	<path class="st0" d="M355.3,246.9c-59.4,0-107.5,48.1-107.5,107.5S296,461.8,355.3,461.8s107.5-48.1,107.5-107.5
		S414.7,246.9,355.3,246.9z M386.2,396.8c-4.7,5.7-10.8,9.6-18,11.5c-3.1,0.9-4.5,2.5-4.3,5.7c0.1,3.1,0,6.3,0,9.6
		c0,2.8-1.4,4.3-4.2,4.4c-3.4,0.1-6.9,0.1-10.2,0c-3-0.1-4.4-1.7-4.4-4.6c0-2.4,0-4.6-0.1-7c0-5.2-0.2-5.4-5.2-6.1
		c-6.3-1-12.5-2.5-18.3-5.3c-4.5-2.2-4.9-3.3-3.7-8.1c1-3.5,1.9-7.1,3-10.5c1.3-4.1,2.4-4.5,6.1-2.6c6.3,3.3,13.1,5.2,20.2,6
		c4.6,0.5,9,0.1,13.2-1.7c7.9-3.4,9.1-12.6,2.5-18.1c-2.3-1.8-4.8-3.2-7.5-4.4c-6.9-3-14.2-5.4-20.7-9.3
		c-10.6-6.3-17.3-15.1-16.6-28c0.9-14.6,9.1-23.8,22.6-28.6c5.5-2,5.6-1.9,5.6-7.7c0-1.9,0-3.9,0-5.8c0.1-4.4,0.9-5.1,5.2-5.3
		c1.3,0,2.7,0,4,0c9.3,0,9.3,0,9.3,9.3c0,6.6,0,6.6,6.6,7.5c4.9,0.8,9.8,2.3,14.3,4.3c2.6,1.1,3.5,2.9,2.7,5.6
		c-1.2,4-2.3,8-3.5,11.9c-1.2,3.8-2.4,4.3-6,2.6c-7.2-3.4-14.7-4.9-22.7-4.5c-2,0.1-4.1,0.4-6,1.3c-6.9,3-8,10.6-2.2,15.3
		c3,2.4,6.3,4.1,9.9,5.6c6.1,2.5,12.3,4.9,18,8.2C394.2,357.9,399.1,381,386.2,396.8z"/>
</g>
</svg>
