<?xml version="1.0" encoding="utf-8"?>
<!-- Generator: Adobe Illustrator 21.1.0, SVG Export Plug-In . SVG Version: 6.00 Build 0)  -->
<svg version="1.1" id="Capa_1" xmlns="http://www.w3.org/2000/svg" xmlns:xlink="http://www.w3.org/1999/xlink" x="0px" y="0px"
	 viewBox="0 0 512 512" style="enable-background:new 0 0 512 512;" xml:space="preserve">
<g>
	<g>
		<path d="M433.7,79h-44.3c-6.1,0-11,5-11,11s5,11,11,11h21.3L278.2,233.1l-58.6-58.6c-4.3-4.3-11.3-4.3-15.6,0L70.4,307.3
			c-4.3,4.3-4.3,11.3,0,15.7c4.3,4.3,11.3,4.3,15.7,0l125.7-125l58.6,58.6c4.3,4.3,11.3,4.3,15.6,0l136.7-136.1v13.9
			c0,6.1,5,11,11,11c6,0,11-5,11-11V90C444.8,84,439.9,79,433.7,79z"/>
	</g>
</g>
<g>
	<g>
		<path d="M403.9,170.7l-125.7,125L219.5,237c-4.3-4.3-11.3-4.3-15.6,0L70.4,369.8c-2.1,2.1-3.3,4.9-3.3,7.8V422c0,6.1,5,11,11,11
			h333.3c6.1,0,11-5,11-11V178.5C422.7,168.8,410.7,163.8,403.9,170.7z M134.3,410.8h-45v-28.6l44.9-44.7v73.3H134.3z M200.7,410.8
			h-44.3v-95.3l44.3-44V410.8z M267,410.8h-44.3V271.7L267,316V410.8z M333.5,410.8h-44.3v-95l44.3-44V410.8z M400.6,410.8h-44.9
			v-161l44.9-44.7V410.8z"/>
	</g>
</g>
</svg>
