<?xml version="1.0" encoding="utf-8"?>
<!-- Generator: Adobe Illustrator 21.1.0, SVG Export Plug-In . SVG Version: 6.00 Build 0)  -->
<svg version="1.1" id="Layer_1" xmlns="http://www.w3.org/2000/svg" xmlns:xlink="http://www.w3.org/1999/xlink" x="0px" y="0px"
	 viewBox="0 0 512 512" style="enable-background:new 0 0 512 512;" xml:space="preserve">
<style type="text/css">
	.st0{fill:#FFFFFF;}
</style>
<g>
	<g>
		<path class="st0" d="M127.8,7.9c-46.6,0-84.4,37.9-84.4,84.4c0,14,3.5,27.8,10.1,40.1l69.7,126c0.9,1.7,2.7,2.7,4.6,2.7
			s3.7-1,4.6-2.7l69.7-126.1c6.6-12.2,10.1-26.1,10.1-40.1C212.2,45.8,174.3,7.9,127.8,7.9z M127.8,134.6
			c-23.3,0-42.2-18.9-42.2-42.2s18.9-42.2,42.2-42.2S170,69.1,170,92.4S151,134.6,127.8,134.6z"/>
	</g>
</g>
<g>
	<g>
		<path class="st0" d="M66.5,316.4c-36,0-65.2,29.3-65.2,65.2c0,10.8,2.7,21.5,7.8,31L63,509.9c0.7,1.3,2.1,2.1,3.6,2.1
			c1.5,0,2.8-0.8,3.6-2.1l53.8-97.4c5.1-9.5,7.8-20.2,7.8-31C131.7,345.6,102.5,316.4,66.5,316.4z M66.5,414.2
			c-18,0-32.6-14.6-32.6-32.6c0-18,14.6-32.6,32.6-32.6s32.6,14.6,32.6,32.6C99.1,399.6,84.5,414.2,66.5,414.2z"/>
	</g>
</g>
<g>
	<g>
		<path class="st0" d="M459.4,343.9c-29.7,0-53.9,24.2-53.9,53.9c0,8.9,2.2,17.8,6.5,25.6l44.5,80.4c0.6,1.1,1.7,1.7,2.9,1.7
			c1.2,0,2.4-0.7,2.9-1.7l44.5-80.4c4.2-7.8,6.5-16.7,6.5-25.6C513.3,368.1,489.1,343.9,459.4,343.9z M459.4,424.7
			c-14.9,0-26.9-12.1-26.9-26.9c0-14.9,12.1-26.9,26.9-26.9s26.9,12.1,26.9,26.9C486.3,412.7,474.2,424.7,459.4,424.7z"/>
	</g>
</g>
<path class="st0" d="M438.7,22.9l-69.9,33.5c-8.4,4-12.9,13.8-10.4,23.4c3.4,13,17.2,19.5,27.8,14.4l26.2-12.5l-86.2,225.8
	L263.7,283c-9.1-1.3-17.7,3.6-20.3,12.6L186,473.1c-3.4,10.4,2.1,22.3,12.1,26.7l0,0c10.2,4.4,21.5-0.5,24.9-11.1l52.7-162.1
	l61.6,23.7c8.5,1.5,17.2-3.4,20.3-11.9l94.1-244.7l15.3,31.9c4.4,9.1,13.9,14.4,22.9,12.4c12.2-2.8,17.5-16.9,12-28.4l-36.5-76.3
	C460.1,23.1,448.3,18.3,438.7,22.9z"/>
</svg>
