<?xml version="1.0" encoding="utf-8"?>
<!-- Generator: Adobe Illustrator 21.1.0, SVG Export Plug-In . SVG Version: 6.00 Build 0)  -->
<svg version="1.1" id="Capa_1" xmlns="http://www.w3.org/2000/svg" xmlns:xlink="http://www.w3.org/1999/xlink" x="0px" y="0px"
	 viewBox="0 0 56 56" style="enable-background:new 0 0 56 56;" xml:space="preserve">
<style type="text/css">
	.st0{fill:#001E35;}
</style>
<g>
	<g>
		<path class="st0" d="M45,0H19c-2.4,0-4.5,1.8-4.9,4.1c-2,0.4-3.6,2-4,4C7.8,8.5,6,10.6,6,13v38c0,2.8,2.2,5,5,5h26
			c2.4,0,4.5-1.8,4.9-4.1c2-0.4,3.6-2,4-4c2.3-0.4,4.1-2.5,4.1-4.9V5C50,2.2,47.8,0,45,0z M40,51c0,1.7-1.3,3-3,3H11
			c-1.7,0-3-1.3-3-3V13c0-1.7,1.3-3,3-3h26c1.7,0,3,1.3,3,3V51z M44,47c0,1.3-0.8,2.4-2,2.8V13c0-2.8-2.2-5-5-5H12.2
			c0.4-1.2,1.5-2,2.8-2h26c1.7,0,3,1.3,3,3V47z M48,43c0,1.3-0.8,2.4-2,2.8V9c0-2.8-2.2-5-5-5H16.2c0.4-1.2,1.5-2,2.8-2h26
			c1.7,0,3,1.3,3,3V43z"/>
		<path class="st0" d="M35,13c-1.7,0-3,1.3-3,3c0,0.5,0.1,0.9,0.3,1.3l-3.4,3.4C28.4,20.3,27.7,20,27,20c-0.8,0-1.5,0.3-2,0.8
			l-3.1-1.9c0.1-0.3,0.2-0.6,0.2-0.9c0-1.7-1.3-3-3-3s-3,1.3-3,3c0,0.5,0.1,1,0.4,1.4L13.5,23c-0.2,0-0.3,0-0.5,0c-1.7,0-3,1.3-3,3
			s1.3,3,3,3s3-1.3,3-3c0-0.8-0.3-1.4-0.7-2l2.6-3.3c0.4,0.1,0.7,0.2,1.1,0.2c0.6,0,1.1-0.2,1.6-0.5l3.4,2.1c0,0.1,0,0.3,0,0.4
			c0,1.7,1.3,3,3,3s3-1.3,3-3c0-0.2,0-0.4-0.1-0.5l3.8-3.8c0.4,0.2,0.8,0.3,1.3,0.3c1.7,0,3-1.3,3-3S36.7,13,35,13z M13,27
			c-0.6,0-1-0.4-1-1s0.4-1,1-1s1,0.4,1,1S13.6,27,13,27z M18,18c0-0.6,0.4-1,1-1s1,0.4,1,1s-0.4,1-1,1S18,18.6,18,18z M27,24
			c-0.6,0-1-0.4-1-1s0.4-1,1-1s1,0.4,1,1S27.6,24,27,24z M35,17c-0.6,0-1-0.4-1-1s0.4-1,1-1s1,0.4,1,1S35.6,17,35,17z"/>
		<rect x="12" y="31" class="st0" width="24" height="2"/>
		<rect x="12" y="35" class="st0" width="24" height="2"/>
		<path class="st0" d="M17,39c-3.3,0-6,2.7-6,6s2.7,6,6,6s6-2.7,6-6S20.3,39,17,39z M21,45c0,0.5-0.1,1.1-0.3,1.5l-2.7-2v-3.4
			C19.7,41.6,21,43.1,21,45z M16,41.1V44h-2.9C13.5,42.6,14.6,41.5,16,41.1z M13.1,46h3.5l2.8,2.1C18.8,48.7,17.9,49,17,49
			C15.1,49,13.6,47.7,13.1,46z"/>
		<rect x="25" y="40" class="st0" width="11" height="2"/>
		<rect x="25" y="44" class="st0" width="11" height="2"/>
		<rect x="25" y="48" class="st0" width="11" height="2"/>
	</g>
</g>
</svg>
