<?xml version="1.0" encoding="utf-8"?>
<!-- Generator: Adobe Illustrator 21.1.0, SVG Export Plug-In . SVG Version: 6.00 Build 0)  -->
<svg version="1.1" id="Capa_1" xmlns="http://www.w3.org/2000/svg" xmlns:xlink="http://www.w3.org/1999/xlink" x="0px" y="0px"
	 viewBox="0 0 490 490" style="enable-background:new 0 0 490 490;" xml:space="preserve">
<style type="text/css">
	.st0{fill:#FFFFFF;}
</style>
<polygon class="st0" points="15.3,490 97.2,490 97.2,237.1 15.3,318.9 "/>
<polygon class="st0" points="226.9,490 226.9,280.5 145,225.4 145,490 "/>
<polygon class="st0" points="356.7,490 356.7,193.6 274.7,267.4 274.7,490 "/>
<polygon class="st0" points="432.8,124.9 404.5,150.3 404.5,490 486.5,490 486.5,173 "/>
<path class="st0" d="M432.3,3h-64.9c-7.8,0-14.7,5.3-16.3,12.8C349,26,357,35.1,366.9,35.1h24.3L244.5,163.6L132.3,90.8
	c-6.4-3.9-14.7-3.4-19.9,2L4.9,197.2c-6.3,6.1-6.5,16.2-0.5,22.6l0,0c6.1,6.5,16.4,6.8,22.8,0.6l98.4-95.3l111.7,72.1
	c5.9,3.9,14.2,3.4,19.6-1.5l159.5-139V84c0,7.8,5.3,14.7,12.8,16.3c10.2,2.1,19.3-5.9,19.3-15.8V19.2C448.4,10.3,441.2,3,432.3,3z"
	/>
</svg>
