<?xml version="1.0" encoding="utf-8"?>
<!-- Generator: Adobe Illustrator 21.1.0, SVG Export Plug-In . SVG Version: 6.00 Build 0)  -->
<svg version="1.1" id="Layer_1" xmlns="http://www.w3.org/2000/svg" xmlns:xlink="http://www.w3.org/1999/xlink" x="0px" y="0px"
	 viewBox="0 0 512 512" style="enable-background:new 0 0 512 512;" xml:space="preserve">
<g>
	<path d="M323.8,229.9c11.8,19.2,18.8,41.8,18.8,66c0,69.8-56.7,126.5-126.5,126.5c-69.8,0-126.5-56.8-126.5-126.5
		c0-69.8,56.7-126.5,126.5-126.5c24.2,0,46.8,7,66,18.8l19.3-19.3c-24.4-16.4-53.8-26-85.3-26C131.7,142.8,63,211.5,63,295.9
		C63,380.3,131.7,449,216.1,449c84.4,0,153.1-68.7,153.1-153.1c0-31.6-9.6-60.9-26-85.3L323.8,229.9z"/>
	<path d="M259.1,211.2c-12.9-6.6-27.5-10.4-42.9-10.4c-52.4,0-95.1,42.6-95.1,95.1c0,52.4,42.6,95.1,95.1,95.1s95.1-42.6,95.1-95.1
		c0-15.5-3.8-30-10.4-43l-20.4,20.4c2.5,7.1,4.2,14.7,4.2,22.6c0,37.7-30.7,68.5-68.5,68.5c-37.7,0-68.5-30.7-68.5-68.5
		c0-37.8,30.7-68.5,68.5-68.5c8,0,15.5,1.6,22.6,4.1L259.1,211.2z"/>
	<path d="M224.5,257.2c0-0.6,0.2-1.2,0.2-1.8c-2.8-0.6-5.6-0.9-8.6-0.9c-22.8,0-41.4,18.5-41.4,41.4c0,22.8,18.5,41.4,41.4,41.4
		c22.8,0,41.4-18.5,41.4-41.4c0-3-0.3-5.8-0.9-8.6c-0.6,0-1.2,0.2-1.8,0.2l-21.4,21.4c-4,4-9.4,6.2-15.1,6.2
		c-5.7,0-11.1-2.2-15.1-6.3c-8.3-8.3-8.3-21.9,0-30.3L224.5,257.2z"/>
	<path d="M448.7,120.9c-0.6-1.8-2.2-3.1-4.1-3.4l-43.5-6.1l-6.6-44c-0.3-1.9-1.6-3.5-3.4-4.1c-0.5-0.2-1.1-0.3-1.6-0.3
		c-1.3,0-2.7,0.5-3.6,1.5L339,111.4c-1.1,1.1-1.7,2.8-1.4,4.3l4.6,31.2l-99.8,99.8c-4.2,4.2-5.4,10.1-4,15.4L212.5,288
		c-3.2,3.2-3.2,8.3,0,11.5c1.6,1.6,3.7,2.4,5.7,2.4c2.1,0,4.2-0.8,5.7-2.4l25.8-25.8c1.4,0.4,2.9,0.6,4.3,0.6c4,0,8-1.4,11.1-4.5
		l99.8-99.8l31.2,4.6c0.2,0,0.5,0.1,0.7,0.1c1.3,0,2.6-0.5,3.6-1.5l46.9-46.9C448.9,124.7,449.4,122.7,448.7,120.9z"/>
</g>
</svg>
