<?xml version="1.0" encoding="utf-8"?>
<!-- Generator: Adobe Illustrator 21.1.0, SVG Export Plug-In . SVG Version: 6.00 Build 0)  -->
<svg version="1.1" id="Capa_1" xmlns="http://www.w3.org/2000/svg" xmlns:xlink="http://www.w3.org/1999/xlink" x="0px" y="0px"
	 viewBox="0 0 56 56" style="enable-background:new 0 0 56 56;" xml:space="preserve">
<style type="text/css">
	.st0{fill:#001E35;}
</style>
<g>
	<g>
		<path class="st0" d="M55,12H37c-0.6,0-1,0.4-1,1v10v1H19c-0.6,0-1,0.4-1,1v10v1H1c-0.6,0-1,0.4-1,1v10v4v4c0,0.6,0.4,1,1,1h18h18
			h18c0.6,0,1-0.4,1-1v-4v-4v-4v-4v-4v-4v-4v-4V13C56,12.4,55.6,12,55,12z M38,14h16v8H38V14z M2,48h16v2H2V48z M20,44h16v2H20V44z
			 M20,40h16v2H20V40z M36,38H20v-1v-1h16V38z M20,48h16v2H20V48z M38,48h16v2H38V48z M38,44h16v2H38V44z M38,40h16v2H38V40z M38,36
			h16v2H38V36z M38,32h16v2H38V32z M38,28h16v2H38V28z M38,25v-1h16v2H38V25z M20,26h16v1v4v3H20V26z M2,38h16v1v4v3H2V38z M2,52h16
			v2H2V52z M20,52h16v2H20V52z M38,54v-2h16v2H38z"/>
		<path class="st0" d="M10,39c-1.7,0-3,1.3-3,3s1.3,3,3,3s3-1.3,3-3S11.7,39,10,39z M10,43c-0.6,0-1-0.4-1-1s0.4-1,1-1s1,0.4,1,1
			S10.6,43,10,43z"/>
		<path class="st0" d="M28,27c-1.7,0-3,1.3-3,3s1.3,3,3,3s3-1.3,3-3S29.7,27,28,27z M28,31c-0.6,0-1-0.4-1-1s0.4-1,1-1s1,0.4,1,1
			S28.6,31,28,31z"/>
		<path class="st0" d="M46,15c-1.7,0-3,1.3-3,3s1.3,3,3,3s3-1.3,3-3S47.7,15,46,15z M46,19c-0.6,0-1-0.4-1-1s0.4-1,1-1s1,0.4,1,1
			S46.6,19,46,19z"/>
		<path class="st0" d="M19,12.4l5.3,5.3c0.4,0.4,1,0.4,1.4,0L40,3.4V6h2V1c0-0.6-0.4-1-1-1h-5v2h2.6L25,15.6l-5.3-5.3
			c-0.4-0.4-1-0.4-1.4,0l-18,18l1.4,1.4L19,12.4z"/>
	</g>
</g>
</svg>
