<?xml version="1.0" encoding="utf-8"?>
<!-- Generator: Adobe Illustrator 21.1.0, SVG Export Plug-In . SVG Version: 6.00 Build 0)  -->
<svg version="1.1" id="Capa_1" xmlns="http://www.w3.org/2000/svg" xmlns:xlink="http://www.w3.org/1999/xlink" x="0px" y="0px"
	 viewBox="0 0 512 512" style="enable-background:new 0 0 512 512;" xml:space="preserve">
<g>
	<g>
		<path d="M356.7,223.8V148l14.5,14.5c4.4,4.4,11.5,4.4,15.8,0c4.4-4.4,4.4-11.5,0-15.8L353.4,113c0,0,0,0,0,0
			c-4.4-4.4-11.5-4.3-15.8,0c0,0,0,0,0,0L304,146.6c-4.4,4.4-4.4,11.5,0,15.8c4.4,4.4,11.5,4.4,15.8,0l14.5-14.5v75.8
			c-1.9,0.2-3.8,0.5-5.7,0.8c-17.5-12.9-38.6-21.2-61.5-23.3v-98.1l14.5,14.5c2.2,2.2,5,3.3,7.9,3.3c2.9,0,5.7-1.1,7.9-3.3
			c4.4-4.4,4.4-11.5,0-15.8l-33.6-33.6c0,0,0,0,0,0c-4.3-4.3-11.4-4.4-15.8,0c0,0,0,0,0,0l-33.6,33.6c-4.4,4.4-4.4,11.5,0,15.8
			c4.4,4.4,11.5,4.4,15.8,0l14.5-14.5v98.1c-22.9,2.1-43.9,10.4-61.5,23.3c-1.9-0.3-3.8-0.6-5.7-0.8V148l14.5,14.5
			c4.4,4.4,11.5,4.4,15.8,0c4.4-4.4,4.4-11.5,0-15.8L174.4,113c0,0,0,0,0,0c-4.4-4.4-11.5-4.3-15.8,0c0,0,0,0,0,0L125,146.6
			c-4.4,4.4-4.4,11.5,0,15.8c4.4,4.4,11.5,4.4,15.8,0l14.5-14.5v75.8C104.6,229.3,65,272.1,65,323.9c0,55.5,45.5,100.7,101.5,100.7
			c5.7,0,11.3-0.5,16.9-1.4c20.4,15,45.5,23.8,72.7,23.8s52.3-8.8,72.7-23.8c5.6,0.9,11.2,1.4,16.9,1.4
			c55.9,0,101.5-45.2,101.5-100.7C447,272.1,407.4,229.3,356.7,223.8z M87.4,323.9c0-41.4,32.5-75.3,73.6-78.1
			c-17.5,21.3-28.1,48.5-28.1,78.1c0,29.6,10.5,56.9,28.1,78.1C119.9,399.2,87.4,365.3,87.4,323.9z M256,424.6
			c-55.5,0-100.7-45.2-100.7-100.7S200.5,223.2,256,223.2s100.7,45.2,100.7,100.7S311.5,424.6,256,424.6z M351.1,402
			c17.5-21.3,28.1-48.5,28.1-78.1s-10.5-56.9-28.1-78.1c41,2.8,73.6,36.8,73.6,78.1S392.1,399.2,351.1,402z"/>
	</g>
</g>
<g>
	<g>
		<path d="M256,312.7c-6.2,0-11.2-5-11.2-11.2c0-6.2,5-11.2,11.2-11.2c3,0,5.8,1.2,7.9,3.3c4.4,4.4,11.5,4.4,15.8,0
			c4.4-4.4,4.4-11.5,0-15.8c-3.6-3.6-7.9-6.3-12.5-7.9v-13.1c0-6.2-5-11.2-11.2-11.2c-6.2,0-11.2,5-11.2,11.2v13.1
			c-12.8,4.5-22.4,16.8-22.4,31.7c0,18.6,15,33.6,33.6,33.6c6.2,0,11.2,5,11.2,11.2c0,6.2-5,11.2-11.2,11.2c-3,0-5.8-1.2-7.9-3.3
			c-4.4-4.4-11.5-4.4-15.8,0c-4.4,4.4-4.4,11.5,0,15.8c3.6,3.6,7.9,6.3,12.5,7.9V391c0,6.2,5,11.2,11.2,11.2c6.2,0,11.2-5,11.2-11.2
			v-13.1c12.8-4.5,22.4-16.8,22.4-31.7C289.6,327.7,274.6,312.7,256,312.7z"/>
	</g>
</g>
</svg>
