<?xml version="1.0" encoding="utf-8"?>
<!-- Generator: Adobe Illustrator 21.1.0, SVG Export Plug-In . SVG Version: 6.00 Build 0)  -->
<svg version="1.1" id="Capa_1" xmlns="http://www.w3.org/2000/svg" xmlns:xlink="http://www.w3.org/1999/xlink" x="0px" y="0px"
	 viewBox="0 0 512 512" style="enable-background:new 0 0 512 512;" xml:space="preserve">
<g>
	<g>
		<path d="M429,152.2L429,152.2c3.9,0,7-3.1,7-7v-39.6c0-16.3-13.2-29.5-29.5-29.5c-1.3,0-2.5,0.1-3.8,0.3c-0.6-0.2-1.2-0.3-1.8-0.3
			H150.5c-16.3,0-29.5,13.2-29.5,29.5v73.4c-16.6,1.9-29.5,16.1-29.5,33.2v170.5H83c-3.9,0-7,3.1-7,7v12.8
			c0,18.5,15.1,33.6,33.6,33.6h292.9c18.5,0,33.6-15.1,33.6-33.6v-12.8c0-3.9-3.1-7-7-7h-8.4V212.1c0-17.1-12.9-31.2-29.5-33.2
			v-26.7H429z M391,105.5c0-8.5,6.9-15.5,15.5-15.5s15.5,6.9,15.5,15.5v32.6H391V105.5z M135.1,105.5c0-8.5,6.9-15.5,15.5-15.5
			h230.8c-2.8,4.5-4.4,9.8-4.4,15.5v277h-4.2h-50.6V271.8l25.3-25.3V330c0,3.9,3.1,7,7,7s7-3.1,7-7V229.5c0-2.8-1.7-5.4-4.3-6.5
			c-2.6-1.1-5.7-0.5-7.7,1.5l-75.2,75.2L241.7,267c-2.4-2.4-6.3-2.7-9.1-0.8l-78.8,56.2c-1.8,1.3-2.9,3.5-2.9,5.7v54.3h-15.8V105.5z
			 M282.7,311.2l25.3-25.3v96.7h-25.3v-70.7C282.7,311.7,282.7,311.4,282.7,311.2z M268.7,313.9v68.6h-25.3v-94L268.7,313.9z
			 M229.3,285.9v96.6H204V304L229.3,285.9z M189.9,314.1v68.5h-25v-50.7L189.9,314.1z M105.5,212.1c0-9.3,6.7-17.1,15.5-18.9v189.4
			h-15.5V212.1z M421.9,396.6v5.8c0,10.8-8.8,19.5-19.5,19.5H109.6c-10.8,0-19.5-8.8-19.5-19.5v-5.8H421.9z M406.5,212.1v170.5H391
			V193.1C399.8,194.9,406.5,202.7,406.5,212.1z"/>
	</g>
</g>
<g>
	<g>
		<path d="M359.4,353.5c-1.3-1.3-3.1-2.1-5-2.1s-3.7,0.7-5,2.1c-1.3,1.3-2.1,3.1-2.1,5s0.8,3.7,2.1,5c1.3,1.3,3.1,2.1,5,2.1
			s3.7-0.8,5-2.1c1.3-1.3,2.1-3.1,2.1-5C361.5,356.6,360.7,354.8,359.4,353.5z"/>
	</g>
</g>
<g>
	<g>
		<path d="M355.1,159.3h-29c-3.9,0-7,3.1-7,7s3.1,7,7,7h12L271,240.5l-30.7-30.7c-2.4-2.4-6.3-2.7-9.1-0.7l-54.6,39.1
			c-3.2,2.3-3.9,6.7-1.6,9.8c1.4,1.9,3.5,2.9,5.7,2.9c1.4,0,2.8-0.4,4.1-1.3l49.7-35.6l31.4,31.4c2.7,2.7,7.2,2.7,9.9,0l72.1-72.1
			v12c0,3.9,3.1,7,7,7s7-3.1,7-7v-29C362.2,162.4,359,159.3,355.1,159.3z"/>
	</g>
</g>
<g>
	<g>
		<path d="M161,266.7c-1.3-1.3-3.1-2.1-5-2.1c-1.8,0-3.7,0.7-5,2.1c-1.3,1.3-2.1,3.1-2.1,5c0,1.9,0.8,3.7,2.1,5
			c1.3,1.3,3.1,2.1,5,2.1c1.8,0,3.7-0.8,5-2.1c1.3-1.3,2.1-3.1,2.1-5C163,269.8,162.3,268,161,266.7z"/>
	</g>
</g>
<g>
	<g>
		<path d="M201.6,150.2c-5.3,0-9.5-3.6-9.5-8s4.3-8,9.5-8c5.3,0,9.5,3.6,9.5,8c0,3.9,3.1,7,7,7s7-3.1,7-7c0-9.9-7-18.3-16.6-21.1
			v-0.2c0-3.9-3.1-7-7-7s-7,3.1-7,7v0.2c-9.6,2.8-16.6,11.2-16.6,21.1c0,12.2,10.6,22.1,23.6,22.1c5.3,0,9.5,3.6,9.5,8s-4.3,8-9.5,8
			c-5.3,0-9.5-3.6-9.5-8c0-3.9-3.1-7-7-7s-7,3.1-7,7c0,9.9,7,18.3,16.6,21.1v0c0,3.9,3.1,7,7,7s7-3.1,7-7v0
			c9.6-2.8,16.6-11.2,16.6-21.1C225.2,160.1,214.6,150.2,201.6,150.2z"/>
	</g>
</g>
<g>
	<g>
		<path d="M271.7,402.3h-31.1c-3.9,0-7,3.1-7,7s3.1,7,7,7h31.1c3.9,0,7-3.1,7-7S275.6,402.3,271.7,402.3z"/>
	</g>
</g>
</svg>
