<?xml version="1.0" encoding="utf-8"?>
<!-- Generator: Adobe Illustrator 21.1.0, SVG Export Plug-In . SVG Version: 6.00 Build 0)  -->
<svg version="1.1" id="Capa_1" xmlns="http://www.w3.org/2000/svg" xmlns:xlink="http://www.w3.org/1999/xlink" x="0px" y="0px"
	 viewBox="0 0 512 512" style="enable-background:new 0 0 512 512;" xml:space="preserve">
<style type="text/css">
	.st0{fill:#001E35;}
</style>
<g>
	<g>
		<path class="st0" d="M69.4,286.4c-4.8,0-8.7,3.9-8.7,8.7v34.7c0,4.8,3.9,8.7,8.7,8.7c4.8,0,8.7-3.9,8.7-8.7V295
			C78.1,290.2,74.2,286.4,69.4,286.4z"/>
	</g>
</g>
<g>
	<g>
		<path class="st0" d="M104.1,303.7c-4.8,0-8.7,3.9-8.7,8.7v34.7c0,4.8,3.9,8.7,8.7,8.7c4.8,0,8.7-3.9,8.7-8.7v-34.7
			C112.8,307.6,108.9,303.7,104.1,303.7z"/>
	</g>
</g>
<g>
	<g>
		<path class="st0" d="M481.9,379c-8.4-29.1-29.1-53.1-56.7-65.8V121.5c0-3.1-1.6-5.9-4.3-7.5L230,1.2c-2.7-1.6-6.1-1.6-8.8,0
			L30.3,114c-0.2,0.1-0.3,0.3-0.5,0.4c-0.2,0.1-0.3,0.3-0.5,0.4c-0.8,0.6-1.4,1.3-1.9,2.1c0,0.1-0.1,0.1-0.1,0.2v0.1
			c-0.5,0.9-0.8,1.8-1,2.8c0,0.3-0.1,0.5-0.1,0.8c0,0.3-0.1,0.5-0.1,0.8v225.6c0,3.1,1.6,5.9,4.3,7.5l190.9,112.8
			c0.2,0.1,0.5,0.2,0.7,0.3c0.2,0.1,0.5,0.2,0.7,0.3c1.9,0.8,4.1,0.8,6,0c0.3-0.1,0.5-0.2,0.7-0.3c0.2-0.1,0.5-0.2,0.7-0.3
			l51.8-30.6c15.9,55.2,73.6,87.1,128.9,71.1C465.9,491.9,497.8,434.2,481.9,379z M225.6,18.8l45.1,26.7L203.8,85
			c-4.1,2.4-5.5,7.8-3.1,11.9c2.4,4.1,7.8,5.5,11.9,3.1l75.1-44.4l45.1,26.7L159.1,184.9L114,158.2l72.7-43
			c4.1-2.4,5.5-7.8,3.1-11.9c-2.4-4.1-7.8-5.5-11.9-3.1l-80.9,47.8l-45.1-26.7L225.6,18.8z M150.4,199.9v57.9l-44.8-26.5v-57.9
			L150.4,199.9z M281.1,381c-2.3,8.8-3.5,17.8-3.4,26.8c0,3.6,0.2,7.3,0.6,10.9l-44,26v-28.2c0-4.8-3.9-8.7-8.7-8.7
			s-8.7,3.9-8.7,8.7v28.2L43.4,342.2V136.7l44.8,26.5v73.1c0,3.1,1.6,5.9,4.3,7.5l62.2,36.7c1.3,0.8,2.9,1.2,4.4,1.2
			c4.8,0,8.7-3.9,8.7-8.7v-62.9l49.2,29.1v142.6c0,4.8,3.9,8.7,8.7,8.7s8.7-3.9,8.7-8.7V239.2l157.3-92.9c4.1-2.4,5.5-7.8,3.1-11.9
			s-7.8-5.5-11.9-3.1l-157.1,92.8L176.2,195L350,92.3l57.8,34.2v180.8C352.5,292.6,295.7,325.6,281.1,381z M381.8,494.6
			c-47.9,0-86.8-38.8-86.8-86.8s38.8-86.8,86.8-86.8s86.8,38.8,86.8,86.8C468.5,455.7,429.7,494.6,381.8,494.6z"/>
	</g>
</g>
<path class="st0" d="M389.4,346.5H376v57h-57v13.4h57v57h13.4v-57h57v-13.4h-57V346.5z"/>
</svg>
