<?xml version="1.0" encoding="utf-8"?>
<!-- Generator: Adobe Illustrator 21.1.0, SVG Export Plug-In . SVG Version: 6.00 Build 0)  -->
<svg version="1.1" id="Layer_1" xmlns="http://www.w3.org/2000/svg" xmlns:xlink="http://www.w3.org/1999/xlink" x="0px" y="0px"
	 viewBox="0 0 512 512" style="enable-background:new 0 0 512 512;" xml:space="preserve">
<style type="text/css">
	.st0{fill:#001E35;}
</style>
<g transform="translate(1 1)">
	<g>
		<g>
			<path class="st0" d="M468.3-1H144.1H75.8C61.3-1,50.2,10.1,50.2,24.6v0.8c-19.7,3.9-34.1,20.9-34.1,41.8s14.5,38,34.1,41.8v10.2
				c-19.7,3.9-34.1,20.9-34.1,41.8s14.5,38,34.1,41.8v10.2C30.5,217,16.1,234,16.1,255s14.5,38,34.1,41.8V307
				c-19.7,3.9-34.1,20.9-34.1,41.8s14.5,38,34.1,41.8v10.2c-19.7,3.9-34.1,20.9-34.1,41.8s14.5,38,34.1,41.8v0.8
				c0,14.5,11.1,25.6,25.6,25.6h68.3h324.3c14.5,0,25.6-11.1,25.6-25.6V24.6C493.9,10.1,482.8-1,468.3-1z M33.1,67.3
				c0-11.5,7-20.8,17.1-24.2v48.4C40.1,88.1,33.1,78.8,33.1,67.3z M33.1,161.1c0-11.5,7-20.8,17.1-24.2v48.4
				C40.1,182,33.1,172.6,33.1,161.1z M33.1,255c0-11.5,7-20.8,17.1-24.2v48.4C40.1,275.8,33.1,266.5,33.1,255z M33.1,348.9
				c0-11.5,7-20.8,17.1-24.2v48.4C40.1,369.7,33.1,360.4,33.1,348.9z M33.1,442.7c0-11.5,7-20.8,17.1-24.2V467
				C40.1,463.6,33.1,454.2,33.1,442.7z M67.3,485.4v-66.9c10.1,3.4,17.1,12.7,17.1,24.2c0,5.1,3.4,8.5,8.5,8.5s8.5-3.4,8.5-8.5
				c0-21-14.5-38-34.1-41.8v-76.3c10.1,3.4,17.1,12.7,17.1,24.2c0,5.1,3.4,8.5,8.5,8.5s8.5-3.4,8.5-8.5c0-21-14.5-38-34.1-41.8
				v-76.3c10.1,3.4,17.1,12.7,17.1,24.2c0,5.1,3.4,8.5,8.5,8.5s8.5-3.4,8.5-8.5c0-21-14.5-38-34.1-41.8v-76.3
				c10.1,3.4,17.1,12.7,17.1,24.2c0,5.1,3.4,8.5,8.5,8.5s8.5-3.4,8.5-8.5c0-21-14.5-38-34.1-41.8V43c10.1,3.4,17.1,12.7,17.1,24.2
				c0,5.1,3.4,8.5,8.5,8.5s8.5-3.4,8.5-8.5c0-21-14.5-38-34.1-41.8v-0.8c0-5.1,3.4-8.5,8.5-8.5h59.7v477.9H75.8
				C70.7,493.9,67.3,490.5,67.3,485.4z M476.9,485.4c0,5.1-3.4,8.5-8.5,8.5H152.6V16.1h315.7c5.1,0,8.5,3.4,8.5,8.5L476.9,485.4
				L476.9,485.4z"/>
			<path class="st0" d="M195.3,312.3h85.3c5.1,0,8.5-3.4,8.5-8.5s-3.4-8.5-8.5-8.5h-85.3c-5.1,0-8.5,3.4-8.5,8.5
				S190.1,312.3,195.3,312.3z"/>
			<path class="st0" d="M314.7,295.2c-5.1,0-8.5,3.4-8.5,8.5s3.4,8.5,8.5,8.5h59.7c5.1,0,8.5-3.4,8.5-8.5s-3.4-8.5-8.5-8.5H314.7z"
				/>
			<path class="st0" d="M434.2,295.2h-25.6c-5.1,0-8.5,3.4-8.5,8.5s3.4,8.5,8.5,8.5h25.6c5.1,0,8.5-3.4,8.5-8.5
				S439.3,295.2,434.2,295.2z"/>
			<path class="st0" d="M348.9,354.9c0-5.1-3.4-8.5-8.5-8.5h-68.3c-5.1,0-8.5,3.4-8.5,8.5s3.4,8.5,8.5,8.5h68.3
				C345.5,363.5,348.9,360.1,348.9,354.9z"/>
			<path class="st0" d="M195.3,363.5h42.7c5.1,0,8.5-3.4,8.5-8.5s-3.4-8.5-8.5-8.5h-42.7c-5.1,0-8.5,3.4-8.5,8.5
				S190.1,363.5,195.3,363.5z"/>
			<path class="st0" d="M195.3,157.8h85.3c5.1,0,8.5-3.4,8.5-8.5s-3.4-8.5-8.5-8.5h-85.3c-5.1,0-8.5,3.4-8.5,8.5
				S190.1,157.8,195.3,157.8z"/>
			<path class="st0" d="M314.7,140.7c-5.1,0-8.5,3.4-8.5,8.5s3.4,8.5,8.5,8.5h59.7c5.1,0,8.5-3.4,8.5-8.5s-3.4-8.5-8.5-8.5H314.7z"
				/>
			<path class="st0" d="M434.2,140.7h-25.6c-5.1,0-8.5,3.4-8.5,8.5s3.4,8.5,8.5,8.5h25.6c5.1,0,8.5-3.4,8.5-8.5
				S439.3,140.7,434.2,140.7z"/>
			<path class="st0" d="M434.2,191.9h-59.7c-5.1,0-8.5,3.4-8.5,8.5s3.4,8.5,8.5,8.5h59.7c5.1,0,8.5-3.4,8.5-8.5
				S439.3,191.9,434.2,191.9z"/>
			<path class="st0" d="M348.9,200.5c0-5.1-3.4-8.5-8.5-8.5h-68.3c-5.1,0-8.5,3.4-8.5,8.5s3.4,8.5,8.5,8.5h68.3
				C345.5,209,348.9,205.6,348.9,200.5z"/>
			<path class="st0" d="M195.3,209h42.7c5.1,0,8.5-3.4,8.5-8.5s-3.4-8.5-8.5-8.5h-42.7c-5.1,0-8.5,3.4-8.5,8.5S190.1,209,195.3,209z
				"/>
			<path class="st0" d="M255,243.1h-59.7c-5.1,0-8.5,3.4-8.5,8.5s3.4,8.5,8.5,8.5H255c5.1,0,8.5-3.4,8.5-8.5S260.1,243.1,255,243.1z
				"/>
			<path class="st0" d="M365.9,243.1h-76.8c-5.1,0-8.5,3.4-8.5,8.5s3.4,8.5,8.5,8.5h76.8c5.1,0,8.5-3.4,8.5-8.5
				S371.1,243.1,365.9,243.1z"/>
			<path class="st0" d="M434.2,243.1h-34.1c-5.1,0-8.5,3.4-8.5,8.5s3.4,8.5,8.5,8.5h34.1c5.1,0,8.5-3.4,8.5-8.5
				S439.3,243.1,434.2,243.1z"/>
		</g>
	</g>
</g>
</svg>
