<?xml version="1.0" encoding="utf-8"?>
<!-- Generator: Adobe Illustrator 21.1.0, SVG Export Plug-In . SVG Version: 6.00 Build 0)  -->
<svg version="1.1" id="Capa_1" xmlns="http://www.w3.org/2000/svg" xmlns:xlink="http://www.w3.org/1999/xlink" x="0px" y="0px"
	 viewBox="0 0 512 512" style="enable-background:new 0 0 512 512;" xml:space="preserve">
<style type="text/css">
	.st0{fill:#001E35;}
</style>
<g>
	<g>
		<path class="st0" d="M215,78H49c-5.5,0-10,4.5-10,10v40c0,5.5,4.5,10,10,10h166c5.5,0,10-4.5,10-10V88C225,82.5,220.5,78,215,78z
			 M205,118H59V98h146V118z"/>
	</g>
</g>
<g>
	<g>
		<path class="st0" d="M215,166H49c-5.5,0-10,4.5-10,10s4.5,10,10,10h166c5.5,0,10-4.5,10-10S220.5,166,215,166z"/>
	</g>
</g>
<g>
	<g>
		<path class="st0" d="M215,206H49c-5.5,0-10,4.5-10,10s4.5,10,10,10h166c5.5,0,10-4.5,10-10S220.5,206,215,206z"/>
	</g>
</g>
<g>
	<g>
		<path class="st0" d="M215,374.6H49c-5.5,0-10,4.5-10,10s4.5,10,10,10h166c5.5,0,10-4.5,10-10S220.5,374.6,215,374.6z"/>
	</g>
</g>
<g>
	<g>
		<path class="st0" d="M502,20.1H296c-16.3,0-30.8,7.9-40,20c-9.1-12.1-23.7-20-40-20H10c-5.5,0-10,4.5-10,10v411.8v40.1
			c0,5.5,4.5,10,10,10h46c5.5,0,10-4.5,10-10s-4.5-10-10-10H20v-20.1h196c13.1,0,24.2,8.4,28.3,20.1H45c-5.5,0-10,4.5-10,10
			s4.5,10,10,10h456.9c5.5,0,10-4.5,10-10L512,30.1C512,24.5,507.5,20.1,502,20.1z M245.9,70.1v371.7c-8.4-6.3-18.7-10-29.9-10H20
			V40.1h196c15.9,0,28.9,12.4,30,28C246,68.8,245.9,69.4,245.9,70.1z M491.9,471.9H267.7c4.1-11.7,15.3-20.1,28.3-20.1h195.9V471.9z
			 M492,431.9H296c-11.2,0-21.6,3.7-29.9,10V70.1c0-0.7,0-1.4-0.1-2c1-15.6,14.1-28,30-28h196V431.9z"/>
	</g>
</g>
<g>
	<g>
		<path class="st0" d="M461,81H295c-5.5,0-10,4.5-10,10s4.5,10,10,10h166c5.5,0,10-4.5,10-10S466.5,81,461,81z"/>
	</g>
</g>
<g>
	<g>
		<path class="st0" d="M461,168.9H295c-5.5,0-10,4.5-10,10s4.5,10,10,10h166c5.5,0,10-4.5,10-10S466.5,168.9,461,168.9z"/>
	</g>
</g>
<g>
	<g>
		<path class="st0" d="M461,125H295c-5.5,0-10,4.5-10,10s4.5,10,10,10h166c5.5,0,10-4.5,10-10S466.5,125,461,125z"/>
	</g>
</g>
<g>
	<g>
		<path class="st0" d="M139.1,269.9c-1.9-1.9-4.4-2.9-7.1-2.9c-2.6,0-5.2,1.1-7.1,2.9c-1.9,1.9-2.9,4.4-2.9,7.1
			c0,2.6,1.1,5.2,2.9,7.1c1.9,1.9,4.4,2.9,7.1,2.9s5.2-1.1,7.1-2.9c1.9-1.9,2.9-4.4,2.9-7.1C142,274.4,140.9,271.8,139.1,269.9z"/>
	</g>
</g>
<g>
	<g>
		<path class="st0" d="M215,267h-37.1c-5.5,0-10,4.5-10,10c0,5.5,4.5,10,10,10H205v40H59v-40h26.9c5.5,0,10-4.5,10-10
			c0-5.5-4.5-10-10-10H49c-5.5,0-10,4.5-10,10v60c0,5.5,4.5,10,10,10h166c5.5,0,10-4.5,10-10v-60C225,271.5,220.5,267,215,267z"/>
	</g>
</g>
<path class="st0" d="M437.6,282.4l-70.1,76.1l-36.7-39.6c-3.9-4.3-10.7-4.6-14.9-0.6c-4.3,3.9-4.6,10.7-0.6,14.9l44.5,48.1
	c1.7,1.8,3.9,2.9,6.3,3.2c0.5,0.1,0.9,0.1,1.4,0.1c3,0.1,5.8-1.2,7.7-3.5l78-84.6c3.9-4.3,3.7-11-0.6-14.9
	C448.3,277.8,441.7,278.1,437.6,282.4z"/>
</svg>
