<?xml version="1.0" encoding="utf-8"?>
<!-- Generator: Adobe Illustrator 21.1.0, SVG Export Plug-In . SVG Version: 6.00 Build 0)  -->
<svg version="1.1" id="Capa_1" xmlns="http://www.w3.org/2000/svg" xmlns:xlink="http://www.w3.org/1999/xlink" x="0px" y="0px"
	 viewBox="0 0 512 512" style="enable-background:new 0 0 512 512;" xml:space="preserve">
<style type="text/css">
	.st0{fill:#001E35;}
</style>
<g>
	<g>
		<path class="st0" d="M293,155H189c-5.5,0-10,4.5-10,10s4.5,10,10,10h104c5.5,0,10-4.5,10-10S298.5,155,293,155z"/>
	</g>
</g>
<g>
	<g>
		<path class="st0" d="M273,203h-84c-5.5,0-10,4.5-10,10s4.5,10,10,10h84c5.5,0,10-4.5,10-10S278.5,203,273,203z"/>
	</g>
</g>
<g>
	<g>
		<path class="st0" d="M263.1,45.9c-1.9-1.9-4.4-2.9-7.1-2.9s-5.2,1.1-7.1,2.9S246,50.4,246,53s1.1,5.2,2.9,7.1
			c1.9,1.9,4.4,2.9,7.1,2.9s5.2-1.1,7.1-2.9c1.9-1.9,2.9-4.4,2.9-7.1S264.9,47.8,263.1,45.9z"/>
	</g>
</g>
<g>
	<g>
		<path class="st0" d="M439.2,39h-96.4c-11-10.5-26-17-42.4-17h-8.8C285,8.7,271.3,0,256,0s-29,8.7-35.7,22h-8.8
			c-16.4,0-31.3,6.5-42.4,17H72.8C45.9,39,24,60.9,24,87.8v375.5c0,26.9,21.9,48.8,48.8,48.8h366.5c26.9,0,48.8-21.9,48.8-48.8V87.8
			C488,60.9,466.1,39,439.2,39z M211.5,42h15.6c4.5,0,8.4-3,9.6-7.3C239.1,26,247,20,256,20c9,0,16.9,6,19.3,14.7
			c1.2,4.3,5.1,7.3,9.6,7.3h15.6c21.7,0,39.6,16.8,41.4,38H170.1C171.9,58.8,189.8,42,211.5,42z M468,463.2
			c0,15.9-12.9,28.8-28.8,28.8H72.8C56.9,492,44,479.1,44,463.2V87.8C44,71.9,56.9,59,72.8,59h82.3c-3.3,7.5-5.1,15.8-5.1,24.5V90
			c0,5.5,4.5,10,10,10h192c5.5,0,10-4.5,10-10v-6.5c0-8.7-1.8-17-5.1-24.5h82.4c15.9,0,28.8,12.9,28.8,28.8V463.2z"/>
	</g>
</g>
<g>
	<g>
		<path class="st0" d="M434.1,157c-3.9-3.9-10.2-3.9-14.1,0l-42.8,42.8L364,186.6c-3.9-3.9-10.2-3.9-14.1,0
			c-3.9,3.9-3.9,10.2,0,14.1l20.2,20.2c2,2,4.5,2.9,7.1,2.9c2.6,0,5.1-1,7.1-2.9l49.8-49.8C438,167.2,438,160.9,434.1,157z"/>
	</g>
</g>
<g>
	<g>
		<path class="st0" d="M141,155H93c-5.5,0-10,4.5-10,10v48c0,5.5,4.5,10,10,10h48c5.5,0,10-4.5,10-10v-48
			C151,159.5,146.5,155,141,155z M131,203h-28v-28h28V203z"/>
	</g>
</g>
<g>
	<g>
		<path class="st0" d="M293,262H189c-5.5,0-10,4.5-10,10s4.5,10,10,10h104c5.5,0,10-4.5,10-10S298.5,262,293,262z"/>
	</g>
</g>
<g>
	<g>
		<path class="st0" d="M273,310h-84c-5.5,0-10,4.5-10,10s4.5,10,10,10h84c5.5,0,10-4.5,10-10S278.5,310,273,310z"/>
	</g>
</g>
<g>
	<g>
		<path class="st0" d="M434.1,264c-3.9-3.9-10.2-3.9-14.1,0l-42.8,42.8L364,293.6c-3.9-3.9-10.2-3.9-14.1,0
			c-3.9,3.9-3.9,10.2,0,14.1l20.2,20.2c2,2,4.5,2.9,7.1,2.9c2.6,0,5.1-1,7.1-2.9l49.8-49.8C438,274.2,438,267.9,434.1,264z"/>
	</g>
</g>
<g>
	<g>
		<path class="st0" d="M141,262H93c-5.5,0-10,4.5-10,10v48c0,5.5,4.5,10,10,10h48c5.5,0,10-4.5,10-10v-48
			C151,266.5,146.5,262,141,262z M131,310h-28v-28h28V310z"/>
	</g>
</g>
<g>
	<g>
		<path class="st0" d="M293,369H189c-5.5,0-10,4.5-10,10s4.5,10,10,10h104c5.5,0,10-4.5,10-10S298.5,369,293,369z"/>
	</g>
</g>
<g>
	<g>
		<path class="st0" d="M273,417h-84c-5.5,0-10,4.5-10,10s4.5,10,10,10h84c5.5,0,10-4.5,10-10S278.5,417,273,417z"/>
	</g>
</g>
<g>
	<g>
		<path class="st0" d="M434.1,371c-3.9-3.9-10.2-3.9-14.1,0l-42.8,42.8L364,400.6c-3.9-3.9-10.2-3.9-14.1,0
			c-3.9,3.9-3.9,10.2,0,14.1l20.2,20.2c2,2,4.5,2.9,7.1,2.9c2.6,0,5.1-1,7.1-2.9l49.8-49.8C438,381.2,438,374.9,434.1,371z"/>
	</g>
</g>
<g>
	<g>
		<path class="st0" d="M141,369H93c-5.5,0-10,4.5-10,10v48c0,5.5,4.5,10,10,10h48c5.5,0,10-4.5,10-10v-48
			C151,373.5,146.5,369,141,369z M131,417h-28v-28h28V417z"/>
	</g>
</g>
</svg>
