<?xml version="1.0" encoding="utf-8"?>
<!-- Generator: Adobe Illustrator 21.1.0, SVG Export Plug-In . SVG Version: 6.00 Build 0)  -->
<svg version="1.1" id="Capa_1" xmlns="http://www.w3.org/2000/svg" xmlns:xlink="http://www.w3.org/1999/xlink" x="0px" y="0px"
	 viewBox="0 0 512 512" style="enable-background:new 0 0 512 512;" xml:space="preserve">
<style type="text/css">
	.st0{fill:#001E35;}
</style>
<g>
	<g>
		<g>
			<path class="st0" d="M219.9,315C219.9,315,219.9,315,219.9,315h182.8c5.6,0,10.2,4.6,10.2,10.3c0,0,0,0,0,0V346h60.9
				c3.6,0,6.9,1.9,8.7,5l30.5,51.7c0.9,1.6,1.4,3.4,1.4,5.3v62c0,5.7-4.5,10.3-10.1,10.3c0,0,0,0,0,0h-20.3c0,17.1-13.6,31-30.5,31
				s-30.5-13.9-30.5-31H311.3c0,17.1-13.6,31-30.5,31s-30.5-13.9-30.5-31h-30.5c-5.6,0-10.2-4.6-10.2-10.3c0,0,0,0,0,0V325.3
				C209.8,319.6,214.3,315,219.9,315z M468,366.7h-14.6v20.7h26.7L468,366.7z M453.5,490.8c5.6,0,10.2-4.6,10.2-10.3
				s-4.5-10.3-10.2-10.3c-5.6,0-10.2,4.6-10.2,10.3C443.3,486.2,447.9,490.8,453.5,490.8z M412.8,459.8h18.1
				c11-12.7,30-13.9,42.5-2.6c0.9,0.8,1.8,1.7,2.6,2.6h18.1v-48.8l-1.7-2.9h-49.1c-5.6,0-10.2-4.6-10.2-10.3c0,0,0,0,0,0v-31h-20.3
				V459.8z M280.9,490.8c5.6,0,10.2-4.6,10.2-10.3s-4.5-10.3-10.2-10.3c-5.6,0-10.2,4.6-10.2,10.3
				C270.7,486.2,275.3,490.8,280.9,490.8z M230.1,459.8h28.2c11-12.7,30-13.9,42.5-2.6c0.9,0.8,1.8,1.7,2.6,2.6h89.1V335.7H230.1
				V459.8z"/>
		</g>
	</g>
	<g>
		<g>
			<rect x="128.7" y="346" class="st0" width="60.8" height="20.7"/>
		</g>
	</g>
	<g>
		<g>
			<rect x="78.7" y="387.4" class="st0" width="110.8" height="20.7"/>
		</g>
	</g>
	<g>
		<g>
			<rect x="128.7" y="428.7" class="st0" width="60.8" height="20.7"/>
		</g>
	</g>
</g>
<g>
	<g>
		<path class="st0" d="M130,165.4C130,165.4,130,165.4,130,165.4H59.1c-6.5,0-11.8,5.3-11.8,11.8c0,0,0,0,0,0v47.3
			c0,6.5,5.3,11.8,11.8,11.8c0,0,0,0,0,0H130c6.5,0,11.8-5.3,11.8-11.8c0,0,0,0,0,0v-47.3C141.8,170.7,136.5,165.4,130,165.4z
			 M118.2,212.7H70.9V189h47.3V212.7z"/>
	</g>
</g>
<g>
	<g>
		<path class="st0" d="M295.4,0C295.4,0,295.4,0,295.4,0H11.8C5.3,0,0,5.3,0,11.8c0,0,0,0,0,0v283.6c0,6.5,5.3,11.8,11.8,11.8
			c0,0,0,0,0,0h283.6c6.5,0,11.8-5.3,11.8-11.8c0,0,0,0,0,0V11.8C307.2,5.3,301.9,0,295.4,0z M165.4,23.6h47.3v59.1
			c0,13.1-10.6,23.6-23.6,23.6c-13.1,0-23.6-10.6-23.6-23.6V23.6z M94.5,23.6h47.3v59.1c0,13.1-10.6,23.6-23.6,23.6
			S94.5,95.8,94.5,82.7V23.6z M23.6,23.6h47.3v59.1c0,13.1-10.6,23.6-23.6,23.6S23.6,95.8,23.6,82.7V23.6z M236.3,283.6h-35.4v-59.1
			h35.4V283.6z M283.6,283.6h-23.6v-70.9c0-6.5-5.3-11.8-11.8-11.8c0,0,0,0,0,0H189c-6.5,0-11.8,5.3-11.8,11.8c0,0,0,0,0,0v70.9
			H23.6V123.4c19.4,11.6,44.4,7.5,59.1-9.8c16.7,19.6,46.2,21.9,65.7,5.1c1.8-1.6,3.6-3.3,5.1-5.1c16.7,19.6,46.2,21.9,65.7,5.1
			c1.8-1.6,3.6-3.3,5.1-5.1c14.7,17.3,39.6,21.4,59.1,9.8V283.6z M283.6,82.7c0,13.1-10.6,23.6-23.6,23.6s-23.6-10.6-23.6-23.6V23.6
			h47.3V82.7z"/>
	</g>
</g>
</svg>
