<?xml version="1.0" encoding="utf-8"?>
<!-- Generator: Adobe Illustrator 21.1.0, SVG Export Plug-In . SVG Version: 6.00 Build 0)  -->
<svg version="1.1" id="Layer_1" xmlns="http://www.w3.org/2000/svg" xmlns:xlink="http://www.w3.org/1999/xlink" x="0px" y="0px"
	 viewBox="0 0 512 512" style="enable-background:new 0 0 512 512;" xml:space="preserve">
<style type="text/css">
	.st0{fill:#001E35;}
</style>
<g>
	<path class="st0" d="M363.7,39.4l51.7,51.7h-51.7V39.4z M78.5,63.6h18.8v396.3h285.2v18.8H78.5V63.6z M434.3,125.4h-16.5v317.9
		H113.8v-415h233.3v79.4h87.1V86.6l-74.9-74.9H97.3V47H62v123.6v16.5v308h337v-35.3h35.3V125.4z M434.3,170.6v-18.8"/>
	<path class="st0" d="M140.2,65h17.7v16.5h-17.7V65z"/>
	<path class="st0" d="M175.5,65h17.7v16.5h-17.7V65z"/>
	<path class="st0" d="M210.8,65h17.7v16.5h-17.7V65z"/>
	<path class="st0" d="M140.2,100.3h97.1v16.5h-97.1V100.3z"/>
	<path class="st0" d="M140.2,135.6H299v16.5H140.2V135.6z"/>
	<path class="st0" d="M140.2,170.9H389v16.5H140.2V170.9z"/>
	<path class="st0" d="M140.2,212.5H389V229H140.2V212.5z"/>
	<path class="st0" d="M140.2,247.7H389v16.5H140.2V247.7z"/>
	<path class="st0" d="M322,399.2H389v16.5H322V399.2z"/>
	<path class="st0" d="M330.8,363.9H389v16.5h-58.2V363.9z"/>
	<path class="st0" d="M273,314.5l-70.1,76.1L166.2,351c-3.9-4.3-10.7-4.6-14.9-0.6c-4.3,3.9-4.6,10.7-0.6,14.9l44.5,48.1
		c1.7,1.8,3.9,2.9,6.3,3.2c0.5,0.1,0.9,0.1,1.4,0.1c3,0.1,5.8-1.2,7.7-3.5l78-84.6c3.9-4.3,3.7-11-0.6-14.9
		C283.7,309.9,277.1,310.2,273,314.5z"/>
</g>
</svg>
