<?xml version="1.0"?>
<svg xmlns="http://www.w3.org/2000/svg" height="512px" viewBox="0 0 480 480.15111" width="512px"><path d="m392.109375 288.527344v-48.410156c0-4.417969-3.582031-8-8-8h-136v-40.324219c.390625 0 .800781-.105469 1.167969-.136719.800781-.082031 1.597656-.210938 2.398437-.304688 2.265625-.265624 4.511719-.601562 6.738281-1.023437.796876-.160156 1.597657-.34375 2.398438-.519531 2.222656-.488282 4.425781-1.050782 6.601562-1.699219.703126-.207031 1.40625-.414063 2.101563-.636719 2.273437-.738281 4.511719-1.558594 6.722656-2.464844.558594-.234374 1.125-.441406 1.679688-.671874 2.398437-1.03125 4.742187-2.175782 7.054687-3.410157.335938-.175781.679688-.328125 1.015625-.503906 2.558594-1.40625 5.082031-2.925781 7.527344-4.582031.800781-.519532 1.496094-1.113282 2.257813-1.648438 1.40625-1.015625 2.832031-1.992187 4.199218-3.089844.070313-.054687.121094-.140624.191406-.207031 31.792969-25.492187 44.023438-68.277343 30.515626-106.722656-13.511719-38.445313-49.820313-64.171875-90.570313-64.171875s-77.058594 25.726562-90.570313 64.171875c-13.511718 38.445313-1.277343 81.230469 30.515626 106.722656.070312.066407.117187.152344.191406.207031 1.367187 1.097657 2.789062 2.074219 4.199218 3.089844.757813.535156 1.480469 1.128906 2.253907 1.648438 2.449219 1.65625 4.96875 3.199218 7.53125 4.582031.335937.175781.679687.328125 1.015625.503906 2.3125 1.234375 4.664062 2.402344 7.054687 3.410157.550781.230468 1.121094.4375 1.679688.671874 2.207031.902344 4.449219 1.722657 6.71875 2.464844.699219.222656 1.402343.429688 2.105469.636719 2.175781.640625 4.375 1.207031 6.601562 1.699219.796875.175781 1.597656.359375 2.398438.519531 2.222656.421875 4.472656.757813 6.734374 1.023437.800782.09375 1.601563.222657 2.402344.304688.390625 0 .800782.101562 1.167969.136719v40.324219h-136c-4.417969 0-8 3.582031-8 8v48.410156c-39.148437 3.207031-72.375 29.972656-83.851563 67.535156-11.476562 37.5625 1.125 78.328125 31.796876 102.863281.070312.066407.117187.152344.191406.210938 1.367187 1.09375 2.789062 2.070312 4.199218 3.085937.757813.535156 1.480469 1.128906 2.253907 1.648438 2.449219 1.65625 4.96875 3.199218 7.53125 4.585937.335937.175781.679687.324219 1.015625.503907 2.3125 1.230468 4.664062 2.398437 7.054687 3.40625.550781.230468 1.121094.441406 1.679688.671874 2.207031.902344 4.449219 1.722657 6.71875 2.464844.699219.222656 1.402343.429688 2.105469.640625 2.175781.636719 4.375 1.203125 6.601562 1.695313.796875.175781 1.597656.359375 2.398438.519531 2.222656.421875 4.472656.757813 6.734374 1.023437.800782.097657 1.601563.222657 2.402344.304688 3.03125.28125 6.078125.464844 9.167969.464844 3.085937 0 6.136719-.183594 9.167969-.464844.800781-.082031 1.597656-.207031 2.398437-.304688 2.265625-.265624 4.511719-.601562 6.738281-1.023437.796876-.160156 1.597657-.34375 2.398438-.519531 2.222656-.484375 4.425781-1.050782 6.601562-1.695313.703126-.210937 1.40625-.417969 2.101563-.640625 2.273437-.738281 4.511719-1.558594 6.722656-2.464844.558594-.230468 1.125-.441406 1.679688-.671874 2.398437-1.03125 4.742187-2.175782 7.054687-3.40625.335938-.179688.679688-.328126 1.015625-.503907 2.558594-1.410156 5.082031-2.929687 7.527344-4.585937.800781-.519532 1.496094-1.113282 2.257813-1.648438 1.40625-1.015625 2.832031-1.992187 4.199218-3.085937.070313-.058594.121094-.144531.191406-.210938 30.671876-24.535156 43.269532-65.300781 31.796876-102.863281-11.476563-37.5625-44.707032-64.328125-83.851563-67.535156v-40.410156h272v40.410156c-39.148437 3.207031-72.375 29.972656-83.851563 67.535156-11.476562 37.5625 1.125 78.328125 31.796876 102.863281.070312.066407.117187.152344.191406.210938 1.367187 1.09375 2.789062 2.070312 4.199218 3.085937.757813.535156 1.480469 1.128906 2.253907 1.648438 2.449219 1.65625 4.96875 3.199218 7.53125 4.585937.335937.175781.679687.324219 1.015625.503907 2.3125 1.230468 4.664062 2.398437 7.054687 3.40625.550781.230468 1.121094.441406 1.679688.671874 2.207031.902344 4.449219 1.722657 6.71875 2.464844.699219.222656 1.402343.429688 2.105469.640625 2.175781.636719 4.375 1.203125 6.601562 1.695313.796875.175781 1.597656.359375 2.398438.519531 2.222656.421875 4.472656.757813 6.734374 1.023437.800782.097657 1.601563.222657 2.402344.304688 3.03125.28125 6.078125.464844 9.167969.464844 3.085937 0 6.136719-.183594 9.167969-.464844.800781-.082031 1.597656-.207031 2.398437-.304688 2.265625-.265624 4.511719-.601562 6.738281-1.023437.796876-.160156 1.597657-.34375 2.398438-.519531 2.222656-.484375 4.425781-1.050782 6.601562-1.695313.703126-.210937 1.40625-.417969 2.101563-.640625 2.273437-.738281 4.511719-1.558594 6.722656-2.464844.558594-.230468 1.125-.441406 1.679688-.671874 2.398437-1.03125 4.742187-2.175782 7.054687-3.40625.335938-.179688.679688-.328126 1.015625-.503907 2.558594-1.410156 5.082031-2.929687 7.527344-4.585937.800781-.519532 1.496094-1.113282 2.257813-1.648438 1.40625-1.015625 2.832031-1.992187 4.199218-3.085937.070313-.058594.121094-.144531.191406-.210938 30.671876-24.535156 43.269532-65.300781 31.796876-102.863281-11.476563-37.5625-44.707032-64.328125-83.851563-67.535156zm-161.328125-113c-1.96875-.230469-3.914062-.519532-5.824219-.886719l-1.519531-.296875c-4.828125-1.023438-9.550781-2.496094-14.105469-4.402344-.382812-.160156-.757812-.34375-1.144531-.511718-1.757812-.796876-3.488281-1.597657-5.183594-2.496094-.664062-.351563-1.328125-.710938-1.984375-1.085938-1.359375-.800781-2.6875-1.601562-4-2.402344-.742187-.484374-1.503906-.941406-2.238281-1.453124-.152344-.105469-.289062-.226563-.441406-.328126 6.304687-19.976562 24.832031-33.558593 45.777344-33.558593 20.945312 0 39.472656 13.582031 45.777343 33.558593-.152343.101563-.289062.222657-.441406.328126-.738281.511718-1.496094.96875-2.242187 1.453124-1.316407.839844-2.644532 1.664063-4 2.402344-.652344.375-1.316407.734375-1.980469 1.085938-1.699219.890625-3.425781 1.730468-5.1875 2.496094-.382813.167968-.757813.351562-1.140625.511718-4.554688 1.90625-9.277344 3.378906-14.105469 4.402344l-1.519531.296875c-1.914063.367187-3.855469.65625-5.824219.886719-.625.070312-1.25.160156-1.871094.214844-2.464843.226562-4.945312.375-7.457031.375s-4.992188-.148438-7.457031-.375c-.640625-.054688-1.261719-.144532-1.886719-.214844zm-22.671875-95.410156c0-17.671876 14.328125-32 32-32s32 14.328124 32 32c0 17.675781-14.328125 32-32 32s-32-14.324219-32-32zm-48 16c-.082031-35.871094 23.726563-67.414063 58.25-77.167969 34.523437-9.753907 71.316406 4.667969 90.019531 35.28125 18.699219 30.617187 14.734375 69.9375-9.703125 96.199219-6.085937-13.753907-16.800781-24.945313-30.277343-31.621094 16.785156-12.246094 23.785156-33.902344 17.347656-53.65625-6.441406-19.753906-24.859375-33.125-45.636719-33.125s-39.199219 13.371094-45.636719 33.125c-6.441406 19.753906.5625 41.410156 17.347656 53.65625-13.480468 6.675781-24.195312 17.867187-30.28125 31.621094-13.765624-14.734376-21.425781-34.144532-21.429687-54.3125zm-96 272c0-17.671876 14.328125-32 32-32s32 14.328124 32 32c0 17.675781-14.328125 32-32 32s-32-14.324219-32-32zm77.335937 81.84375c-.738281.511718-1.496093.964843-2.242187 1.453124-1.320313.839844-2.644531 1.664063-4 2.402344-.65625.375-1.320313.734375-1.980469 1.085938-1.699218.890625-3.425781 1.730468-5.1875 2.496094-.382812.167968-.757812.351562-1.140625.511718-4.554687 1.902344-9.277343 3.378906-14.105469 4.402344l-1.519531.292969c-1.914062.371093-3.855469.65625-5.824219.890625-.625.070312-1.25.160156-1.871093.214844-2.464844.222656-4.945313.375-7.457031.375-2.511719 0-4.992188-.152344-7.457032-.375-.625-.054688-1.246094-.144532-1.871094-.214844-1.96875-.234375-3.914062-.519532-5.824218-.890625l-1.519532-.292969c-4.828124-1.023438-9.550781-2.5-14.105468-4.402344-.382813-.160156-.800782-.34375-1.144532-.511718-1.757812-.800782-3.488281-1.597657-5.183593-2.496094-.664063-.351563-1.328125-.710938-1.984375-1.085938-1.359375-.800781-2.6875-1.601562-4-2.402344-.742188-.488281-1.503906-.941406-2.238282-1.453124-.152343-.105469-.289062-.226563-.441406-.328126 6.304688-19.976562 24.832032-33.558593 45.777344-33.558593s39.472656 13.582031 45.777344 33.558593c-.195313.085938-.304688.222657-.457032.328126zm34.664063-65.84375c-.007813 20.167968-7.667969 39.578124-21.433594 54.3125-6.085937-13.753907-16.800781-24.945313-30.277343-31.621094 16.785156-12.246094 23.785156-33.902344 17.347656-53.65625-6.441406-19.753906-24.859375-33.125-45.636719-33.125s-39.199219 13.371094-45.636719 33.125c-6.441406 19.753906.5625 41.410156 17.347656 53.65625-13.480468 6.675781-24.195312 17.867187-30.28125 31.621094-24.359374-26.261719-28.28125-65.523438-9.589843-96.085938 18.6875-30.558594 55.425781-44.960938 89.90625-35.238281 34.476562 9.722656 58.28125 41.191406 58.253906 77.011719zm176-16c0-17.671876 14.328125-32 32-32s32 14.328124 32 32c0 17.675781-14.328125 32-32 32s-32-14.324219-32-32zm77.335937 81.84375c-.738281.511718-1.496093.964843-2.242187 1.453124-1.320313.839844-2.644531 1.664063-4 2.402344-.65625.375-1.320313.734375-1.980469 1.085938-1.699218.890625-3.425781 1.730468-5.1875 2.496094-.382812.167968-.757812.351562-1.140625.511718-4.554687 1.902344-9.277343 3.378906-14.105469 4.402344l-1.519531.292969c-1.914062.371093-3.855469.65625-5.824219.890625-.625.070312-1.25.160156-1.871093.214844-2.464844.222656-4.945313.375-7.457031.375-2.511719 0-4.992188-.152344-7.457032-.375-.625-.054688-1.246094-.144532-1.871094-.214844-1.96875-.234375-3.914062-.519532-5.824218-.890625l-1.519532-.292969c-4.828124-1.023438-9.550781-2.5-14.105468-4.402344-.382813-.160156-.757813-.34375-1.144532-.511718-1.757812-.800782-3.488281-1.597657-5.183593-2.496094-.664063-.351563-1.328125-.710938-1.984375-1.085938-1.359375-.800781-2.6875-1.601562-4-2.402344-.742188-.488281-1.503906-.941406-2.238282-1.453124-.152343-.105469-.289062-.226563-.441406-.328126 6.304688-19.976562 24.832032-33.558593 45.777344-33.558593s39.472656 13.582031 45.777344 33.558593c-.195313.085938-.304688.222657-.457032.328126zm13.230469-11.53125c-6.085937-13.753907-16.800781-24.945313-30.277343-31.621094 16.785156-12.246094 23.785156-33.902344 17.347656-53.65625-6.441406-19.753906-24.859375-33.125-45.636719-33.125s-39.199219 13.371094-45.636719 33.125c-6.441406 19.753906.5625 41.410156 17.347656 53.65625-13.480468 6.675781-24.195312 17.867187-30.28125 31.621094-29.585937-31.796876-28.394531-81.394532 2.683594-111.738282 31.078125-30.339844 80.691406-30.339844 111.773438 0 31.078125 30.34375 32.269531 79.941406 2.679687 111.738282zm0 0" fill="#001e35"/></svg>
