<?xml version="1.0" encoding="utf-8"?>
<!-- Generator: Adobe Illustrator 21.1.0, SVG Export Plug-In . SVG Version: 6.00 Build 0)  -->
<svg version="1.1" id="Layer_1" xmlns="http://www.w3.org/2000/svg" xmlns:xlink="http://www.w3.org/1999/xlink" x="0px" y="0px"
	 viewBox="0 0 512 512" style="enable-background:new 0 0 512 512;" xml:space="preserve">
<style type="text/css">
	.st0{fill:#001E35;}
</style>
<path class="st0" d="M248,138.5l-21.4-21.4l10.7-10.7l10.7,10.7l34.7-34.7l10.7,10.7L248,138.5z"/>
<path class="st0" d="M352.2,120.2h112.2v15.2H352.2V120.2z"/>
<path class="st0" d="M352.2,192.3h112.2v15.2H352.2V192.3z"/>
<path class="st0" d="M352.2,160.3h16v15.2h-16V160.3z"/>
<path class="st0" d="M352.2,264.4h112.2v15.2H352.2V264.4z"/>
<path class="st0" d="M384.2,232.4h16v15.2h-16V232.4z"/>
<path class="st0" d="M384.2,88.1h16v15.2h-16V88.1z"/>
<path class="st0" d="M512,55.6V8H0v399.8h176.3v49h-32.1V504h63.7v-15.2h-48.5v-16.9h193.2v16.9H232V504h135.8v-47.2h-32.1v-49H512
	V39.7h-15.2v272.8H149.9v15.2h346.9v65H15.2v-65h160.7v-15.2H15.2V23.2h481.7v32.5H512z M320.5,407.8v49H191.5v-49H320.5z"/>
<path class="st0" d="M248,352.6h16v15.2h-16V352.6z"/>
<path class="st0" d="M48.1,112.2v175.4h191.5V181.5c5.4,1.3,10.9,1.9,16.5,1.9c39.5,0,71.7-32.2,71.7-71.7S295.5,40.1,256,40.1
	s-71.7,32.2-71.7,71.7c0,0.1,0,0.3,0,0.4H48.1z M127.3,175.4h32.9v16.9h-32.9V175.4z M160.3,127.3v32.9h-32.9v-32.9H160.3z
	 M256,55.2c31.2,0,56.5,25.4,56.5,56.5s-25.4,56.5-56.5,56.5c-6.9,0-13.5-1.2-19.9-3.6c-19.8-7.4-33.6-24.9-36.2-45.9v0
	c-0.3-2.2-0.4-4.6-0.4-7C199.5,80.6,224.8,55.2,256,55.2z M186,127.3c4.7,21.3,18.8,39.2,38.4,48.8v96.4H63.2V127.3h49v80.1h63.2
	v-80.1H186z"/>
<path class="st0" d="M111.8,224.4h64.1v15.2h-64.1V224.4z"/>
<path class="st0" d="M384.2,160.3h16v15.2h-16V160.3z"/>
<path class="st0" d="M352.2,232.4h16v15.2h-16V232.4z"/>
<path class="st0" d="M352.2,88.1h16v15.2h-16V88.1z"/>
</svg>
