<?xml version="1.0" encoding="utf-8"?>
<!-- Generator: Adobe Illustrator 21.1.0, SVG Export Plug-In . SVG Version: 6.00 Build 0)  -->
<svg version="1.1" id="Layer_1" xmlns="http://www.w3.org/2000/svg" xmlns:xlink="http://www.w3.org/1999/xlink" x="0px" y="0px"
	 viewBox="0 0 512 512" style="enable-background:new 0 0 512 512;" xml:space="preserve">
<style type="text/css">
	.st0{fill:#001E35;}
</style>
<g>
	<path class="st0" d="M363.7,39.4l51.7,51.7h-51.7V39.4z M78.5,63.6h18.8v396.3h285.2v18.8h-304V63.6z M434.3,125.4h-16.5v317.9
		h-304v-415h233.3v79.4h87.1V86.6l-74.9-74.9h-262V47H62v123.6v16.5v308h337v-35.3h35.3V125.4z M434.3,170.6v-18.8"/>
	<path class="st0" d="M140.2,60.3h97.1v16.5h-97.1L140.2,60.3L140.2,60.3z"/>
	<path class="st0" d="M140.2,95.6H299v16.5H140.2V95.6z"/>
	<path class="st0" d="M246,245.5h137V262H246V245.5z"/>
	<path class="st0" d="M246.8,210.2H383v16.5H246.8V210.2z"/>
	<path class="st0" d="M215.4,203l-41.2,44.7l-21.6-23.3c-2.3-2.5-6.3-2.7-8.8-0.4c-2.5,2.3-2.7,6.3-0.4,8.8l26.1,28.3
		c1,1.1,2.3,1.7,3.7,1.9c0.3,0.1,0.5,0.1,0.8,0.1c1.8,0.1,3.4-0.7,4.5-2.1l45.8-49.7c2.3-2.5,2.2-6.5-0.4-8.8
		C221.7,200.3,217.8,200.4,215.4,203z"/>
	<path class="st0" d="M246,366.5h137V383H246V366.5z"/>
	<path class="st0" d="M246.8,331.2H383v16.5H246.8V331.2z"/>
	<path class="st0" d="M215.4,324l-41.2,44.7l-21.6-23.3c-2.3-2.5-6.3-2.7-8.8-0.4c-2.5,2.3-2.7,6.3-0.4,8.8l26.1,28.3
		c1,1.1,2.3,1.7,3.7,1.9c0.3,0.1,0.5,0.1,0.8,0.1c1.8,0.1,3.4-0.7,4.5-2.1l45.8-49.7c2.3-2.5,2.2-6.5-0.4-8.8
		C221.7,321.3,217.8,321.4,215.4,324z"/>
</g>
</svg>
