<?xml version="1.0" encoding="utf-8"?>
<!-- Generator: Adobe Illustrator 21.1.0, SVG Export Plug-In . SVG Version: 6.00 Build 0)  -->
<svg version="1.1" id="Capa_1" xmlns="http://www.w3.org/2000/svg" xmlns:xlink="http://www.w3.org/1999/xlink" x="0px" y="0px"
	 viewBox="0 0 512 512" style="enable-background:new 0 0 512 512;" xml:space="preserve">
<style type="text/css">
	.st0{fill:#001E35;}
</style>
<g>
	<path class="st0" d="M441.7,345.8L391.5,418L356,388.9c-3.8-3.2-9.5-2.6-12.6,1.2c-3.2,3.8-2.6,9.5,1.2,12.6l43,35.3
		c1.6,1.3,3.6,2,5.7,2c0.4,0,0.8,0,1.2-0.1c2.5-0.3,4.7-1.7,6.1-3.8l55.8-80.2c2.8-4.1,1.8-9.7-2.2-12.5
		C450.2,340.7,444.6,341.7,441.7,345.8z"/>
	<path class="st0" d="M485.1,320.7V109.4C485.1,49.1,436,0,375.7,0H109.4C49.1,0,0,49.1,0,109.4v266.3C0,436,49.1,485.1,109.4,485.1
		h211.3c20.2,16.8,46.2,26.9,74.5,26.9c64.4,0,116.8-52.4,116.8-116.8C512,366.9,501.9,341,485.1,320.7z M109.4,467.1
		c-50.4,0-91.4-41-91.4-91.4V109.4C18,59,59,18,109.4,18h266.3c50.4,0,91.4,41,91.4,91.4v193.9c-0.7-0.5-1.4-1-2.1-1.5
		c-1.9-1.4-3.8-2.8-5.7-4.1c-0.2-0.1-0.4-0.3-0.6-0.4c-4.6-3-9.5-5.6-14.5-8c-0.7-0.3-1.3-0.7-2-1c-2-0.9-4-1.6-6-2.4
		c-1.3-0.5-2.6-1-3.9-1.4c-1.9-0.6-3.7-1.2-5.6-1.7c-1.6-0.4-3.2-0.9-4.9-1.2c-1.7-0.4-3.4-0.8-5.2-1.1c-2.1-0.4-4.1-0.7-6.2-1
		c-1.4-0.2-2.8-0.4-4.2-0.5c-3.6-0.4-7.2-0.6-10.9-0.6c-55.1,0-101.3,38.4-113.5,89.8h-39.2c-5,0-9,4-9,9s4,9,9,9h36.4
		c-0.2,3-0.5,6-0.5,9c0,3.6,0.2,7.3,0.5,10.9c0.1,1.4,0.4,2.8,0.5,4.2c0.3,2.1,0.6,4.1,1,6.2c0.3,1.8,0.7,3.5,1.1,5.2
		c0.4,1.6,0.8,3.2,1.2,4.8c0.5,1.9,1.1,3.8,1.7,5.7c0.4,1.3,0.9,2.5,1.4,3.8c0.8,2.1,1.5,4.1,2.4,6.1c0.3,0.6,0.6,1.2,0.8,1.8
		c2.4,5.2,5.1,10.2,8.2,15c0.1,0.1,0.2,0.3,0.2,0.4c1.3,2,2.7,3.9,4.1,5.8c0.5,0.7,1,1.4,1.5,2.1L109.4,467.1L109.4,467.1z
		 M395.2,494c-25.3,0-48.4-9.7-65.9-25.4c-2.2-1.9-4.2-4-6.2-6.1c-0.4-0.5-0.9-0.9-1.3-1.4c-1.9-2.1-3.7-4.2-5.3-6.5
		c-0.4-0.5-0.8-1-1.2-1.5c-1.7-2.3-3.2-4.7-4.7-7.1c-0.3-0.5-0.6-1-0.9-1.5c-1.5-2.5-2.8-5.1-4.1-7.8c-0.2-0.4-0.4-0.8-0.6-1.3
		c-1.2-2.8-2.3-5.6-3.3-8.5c-0.1-0.4-0.3-0.7-0.4-1.1c-1-2.9-1.8-5.9-2.5-8.9c-0.1-0.4-0.2-0.7-0.3-1.1c-0.6-3-1.1-6-1.5-9
		c-0.1-0.4-0.1-0.8-0.2-1.3c-0.4-3.4-0.6-6.9-0.6-10.4c0-54.5,44.3-98.8,98.8-98.8c3.5,0,7,0.2,10.4,0.6c0.4,0,0.8,0.1,1.2,0.2
		c3.1,0.4,6.1,0.8,9.1,1.5c0.3,0.1,0.7,0.2,1,0.3c3,0.7,6,1.5,9,2.5c0.3,0.1,0.7,0.2,1,0.4c2.9,1,5.8,2.1,8.6,3.4
		c0.4,0.2,0.8,0.4,1.2,0.6c2.7,1.2,5.3,2.6,7.9,4.1c0.5,0.3,0.9,0.6,1.4,0.8c2.5,1.5,4.8,3,7.2,4.7c0.5,0.4,1,0.7,1.5,1.1
		c2.3,1.7,4.5,3.5,6.6,5.4c0.4,0.4,0.9,0.8,1.3,1.2c2.1,2,4.2,4.1,6.2,6.3c15.7,17.5,25.4,40.5,25.4,65.9
		C494,449.7,449.7,494,395.2,494z"/>
	<path class="st0" d="M242.5,125.8h161.7c5,0,9-4,9-9c0-5-4-9-9-9H242.5c-5,0-9,4-9,9C233.5,121.7,237.6,125.8,242.5,125.8z"/>
	<path class="st0" d="M242.5,251.5h161.7c5,0,9-4,9-9c0-5-4-9-9-9H242.5c-5,0-9,4-9,9C233.5,247.5,237.6,251.5,242.5,251.5z"/>
	<path class="st0" d="M164.5,66l-56.1,65.5l-34.3-25.8c-4-3-9.6-2.2-12.6,1.8c-3,4-2.2,9.6,1.8,12.6l41.1,30.8
		c1.6,1.2,3.5,1.8,5.4,1.8c2.5,0,5.1-1.1,6.8-3.1l61.6-71.9c3.2-3.8,2.8-9.4-1-12.7C173.4,61.8,167.7,62.2,164.5,66z"/>
	<path class="st0" d="M120,199.7c-23.6,0-42.8,19.2-42.8,42.8c0,23.6,19.2,42.8,42.8,42.8c23.6,0,42.8-19.2,42.8-42.8
		C162.8,218.9,143.6,199.7,120,199.7z M120,265.3c-12.6,0-22.8-10.2-22.8-22.8c0-12.6,10.2-22.8,22.8-22.8
		c12.6,0,22.8,10.2,22.8,22.8C142.8,255.1,132.6,265.3,120,265.3z"/>
	<path class="st0" d="M120,334.7c-23.6,0-42.8,19.2-42.8,42.8c0,23.6,19.2,42.8,42.8,42.8c23.6,0,42.8-19.2,42.8-42.8
		C162.8,353.9,143.6,334.7,120,334.7z M120,400.3c-12.6,0-22.8-10.2-22.8-22.8c0-12.6,10.2-22.8,22.8-22.8
		c12.6,0,22.8,10.2,22.8,22.8C142.8,390.1,132.6,400.3,120,400.3z"/>
</g>
</svg>
