<?xml version="1.0" encoding="utf-8"?>
<!-- Generator: Adobe Illustrator 21.1.0, SVG Export Plug-In . SVG Version: 6.00 Build 0)  -->
<svg version="1.1" id="Layer_1" xmlns="http://www.w3.org/2000/svg" xmlns:xlink="http://www.w3.org/1999/xlink" x="0px" y="0px"
	 viewBox="0 0 512 512" style="enable-background:new 0 0 512 512;" xml:space="preserve">
<style type="text/css">
	.st0{fill:#001E35;}
</style>
<path class="st0" d="M68.6,512h324.3c14.1,0,25.6-11.5,25.6-25.6V85.3h34.1c9.4,0,17.1-7.6,17.1-17.1V42.7C469.6,19.1,450.6,0,427,0
	H68.6C54.5,0,43,11.5,43,25.6v460.8C43,500.5,54.5,512,68.6,512z M427,17.1c14.1,0,25.6,11.5,25.6,25.6v25.6H111.3V42.7
	c0-9.3-3.1-18.3-8.8-25.6H427z M60.1,25.6c0-4.7,3.8-8.5,8.5-8.5c14.1,0,25.6,11.5,25.6,25.6v25.6c0,9.4,7.6,17.1,17.1,17.1h290.1
	v401.1c0,4.7-3.8,8.5-8.5,8.5H68.6c-4.7,0-8.5-3.8-8.5-8.5V25.6z"/>
<path class="st0" d="M104.3,213.3h51.2c9.4,0,17.1-7.6,17.1-17.1v-51.2c0-9.4-7.6-17.1-17.1-17.1h-51.2c-9.4,0-17.1,7.6-17.1,17.1
	v51.2C87.2,205.7,94.8,213.3,104.3,213.3z M104.3,145.1h51.2v51.2h-51.2V145.1z"/>
<path class="st0" d="M206.7,149.1h42.7c4.7,0,8.5-3.8,8.5-8.5c0-4.7-3.8-8.5-8.5-8.5h-42.7c-4.7,0-8.5,3.8-8.5,8.5
	C198.1,145.3,202,149.1,206.7,149.1z"/>
<path class="st0" d="M368.8,132.1h-85.3c-4.7,0-8.5,3.8-8.5,8.5c0,4.7,3.8,8.5,8.5,8.5h85.3c4.7,0,8.5-3.8,8.5-8.5
	C377.3,135.9,373.5,132.1,368.8,132.1z"/>
<path class="st0" d="M206.7,201.3h160.5c4.7,0,8.5-3.8,8.5-8.5c0-4.7-3.8-8.5-8.5-8.5H206.7c-4.7,0-8.5,3.8-8.5,8.5
	C198.1,197.4,202,201.3,206.7,201.3z"/>
<path class="st0" d="M104.3,333.3h51.2c9.4,0,17.1-7.6,17.1-17.1v-51.2c0-9.4-7.6-17.1-17.1-17.1h-51.2c-9.4,0-17.1,7.6-17.1,17.1
	v51.2C87.2,325.7,94.8,333.3,104.3,333.3z M104.3,265.1h51.2v51.2h-51.2V265.1z"/>
<path class="st0" d="M206.7,272.1h42.7c4.7,0,8.5-3.8,8.5-8.5c0-4.7-3.8-8.5-8.5-8.5h-42.7c-4.7,0-8.5,3.8-8.5,8.5
	C198.1,268.3,202,272.1,206.7,272.1z"/>
<path class="st0" d="M368.8,255.1h-85.3c-4.7,0-8.5,3.8-8.5,8.5c0,4.7,3.8,8.5,8.5,8.5h85.3c4.7,0,8.5-3.8,8.5-8.5
	C377.3,258.9,373.5,255.1,368.8,255.1z"/>
<path class="st0" d="M206.7,316.3h160.5c4.7,0,8.5-3.8,8.5-8.5c0-4.7-3.8-8.5-8.5-8.5H206.7c-4.7,0-8.5,3.8-8.5,8.5
	C198.1,312.4,202,316.3,206.7,316.3z"/>
<path class="st0" d="M104.3,453.3h51.2c9.4,0,17.1-7.6,17.1-17.1v-51.2c0-9.4-7.6-17.1-17.1-17.1h-51.2c-9.4,0-17.1,7.6-17.1,17.1
	v51.2C87.2,445.7,94.8,453.3,104.3,453.3z M104.3,385.1h51.2v51.2h-51.2V385.1z"/>
<path class="st0" d="M206.7,392.1h42.7c4.7,0,8.5-3.8,8.5-8.5c0-4.7-3.8-8.5-8.5-8.5h-42.7c-4.7,0-8.5,3.8-8.5,8.5
	C198.1,388.3,202,392.1,206.7,392.1z"/>
<path class="st0" d="M368.8,375.1h-85.3c-4.7,0-8.5,3.8-8.5,8.5c0,4.7,3.8,8.5,8.5,8.5h85.3c4.7,0,8.5-3.8,8.5-8.5
	C377.3,378.9,373.5,375.1,368.8,375.1z"/>
<path class="st0" d="M206.7,436.3h160.5c4.7,0,8.5-3.8,8.5-8.5c0-4.7-3.8-8.5-8.5-8.5H206.7c-4.7,0-8.5,3.8-8.5,8.5
	C198.1,432.4,202,436.3,206.7,436.3z"/>
</svg>
