<?xml version="1.0" encoding="utf-8"?>
<!-- Generator: Adobe Illustrator 21.1.0, SVG Export Plug-In . SVG Version: 6.00 Build 0)  -->
<svg version="1.1" id="Layer_1" xmlns="http://www.w3.org/2000/svg" xmlns:xlink="http://www.w3.org/1999/xlink" x="0px" y="0px"
	 viewBox="0 0 512 512" style="enable-background:new 0 0 512 512;" xml:space="preserve">
<style type="text/css">
	.st0{fill:#001E35;}
</style>
<path class="st0" d="M404.5,288.4l-16.8-28.2h-12.5L358,288.4h-11.9v45.4H417v-45.4H404.5z M381.4,278.9l5.7,9.5h-11.4L381.4,278.9z
	 M402,318.8h-40.8v-15.4H402V318.8z"/>
<path class="st0" d="M482.7,17H29.3L0,48.4v97.4l29.2,29.2h39.5l21.7-21.7l21.7,21.7h39.5l21.7-21.7l21.7,21.7h39.5l21.7-21.7
	l21.7,21.7h39.5l21.7-21.7l21.7,21.7H400l21.7-21.7l21.7,21.7h39.5l29.2-29.2V48.4L482.7,17z M62.4,160.1h-27L15,139.7V83h67.8v56.6
	L62.4,160.1z M145.3,160.1h-27l-20.4-20.4V83h67.8v56.6L145.3,160.1z M228.1,160.1h-27l-20.4-20.4V83h67.8v56.6L228.1,160.1z
	 M310.9,160.1h-27l-20.4-20.4V83h67.8v56.6L310.9,160.1z M393.8,160.1h-27l-20.4-20.4V83h67.8v56.6L393.8,160.1z M497,139.7
	l-20.4,20.4h-27l-20.4-20.4V83H497V139.7z M15,68V54.3L35.8,32h440.4L497,54.3V68H15z"/>
<path class="st0" d="M486.5,181.6h15v252.1h-15V181.6z"/>
<path class="st0" d="M11,182.1h15v251.6H11V182.1z"/>
<path class="st0" d="M76.5,187.6h-15l0,236.6h216.3l-0.1-238.8l-15,0l0,223.8H76.5L76.5,187.6z"/>
<path class="st0" d="M450.1,187.6h-15v258.6h-107V187.6h-15v258.6H0v50.4h512v-50.4h-61.9V187.6z M497,461.2v20.4H15v-20.4H497z"/>
<path class="st0" d="M425.1,432.2h-15v-50.5h15V432.2z M425.1,371.8h-15v-15h15V371.8z"/>
<path class="st0" d="M250.4,292.1H144v-15h106.4V292.1z"/>
<path class="st0" d="M250.4,324.1H102v-15h148.4V324.1z"/>
<path class="st0" d="M477,58H264.6V43H477V58z M254.6,58h-15V43h15V58z M229.6,58h-15V43h15V58z"/>
</svg>
