<?xml version="1.0" encoding="utf-8"?>
<!-- Generator: Adobe Illustrator 21.1.0, SVG Export Plug-In . SVG Version: 6.00 Build 0)  -->
<svg version="1.1" id="Capa_1" xmlns="http://www.w3.org/2000/svg" xmlns:xlink="http://www.w3.org/1999/xlink" x="0px" y="0px"
	 viewBox="0 0 512 512" style="enable-background:new 0 0 512 512;" xml:space="preserve">
<style type="text/css">
	.st0{fill:#FFFFFF;}
</style>
<g>
	<path class="st0" d="M64,23L5.4,101.3c-9.8,14.7-5.8,34.6,8.9,44.4c5.4,3.6,11.6,5.4,17.7,5.4c10.3,0,20.5-5,26.7-14.3l6.9-10.3
		C68.9,140.4,81,151,96,151c17.7,0,32-14.3,32-32c0,17.7,14.3,32,32,32s32-14.3,32-32c0,17.7,14.3,32,32,32s32-14.3,32-32
		c0,17.7,14.3,32,32,32c17.7,0,32-14.3,32-32c0,17.7,14.3,32,32,32s32-14.3,32-32c0,17.7,14.3,32,32,32c15.1,0,27.1-10.6,30.5-24.6
		l6.9,10.3c6.2,9.3,16.3,14.3,26.7,14.3c6.1,0,12.3-1.8,17.7-5.4c14.7-9.8,18.7-29.7,8.9-44.4L448,23H64z M512,501H0
		c0-26.5,21.5-48,48-48h416C490.5,453,512,474.5,512,501z M76,175H44v214v32h424v-32V175h-32H76z M76,389V207h116v182H76z M224,389
		V207h212v182H224z M122,295c0,8.8-7.2,16-16,16s-16-7.2-16-16s7.2-16,16-16S122,286.2,122,295z"/>
</g>
</svg>
